<svg version="1.2" xmlns="http://www.w3.org/2000/svg" viewBox="0 0 89 156" width="89" height="156">
	<title>3D_Shape-1-svg</title>
	<defs>
		<linearGradient id="g1" x1="25.1" y1="9.4" x2="1.3" y2="14.7" gradientUnits="userSpaceOnUse">
			<stop offset="0" stop-color="#4b4f67"/>
			<stop offset=".5" stop-color="#9a4844"/>
			<stop offset="1" stop-color="#f1411d"/>
		</linearGradient>
		<linearGradient id="g2" x1="11.3" y1="31.2" x2="72.7" y2="91.6" gradientUnits="userSpaceOnUse">
			<stop offset="0" stop-color="#4b4f67"/>
			<stop offset=".5" stop-color="#92445d"/>
			<stop offset="1" stop-color="#e13851"/>
		</linearGradient>
		<linearGradient id="g3" x1="3.1" y1="142.9" x2="29.6" y2="138.5" gradientUnits="userSpaceOnUse">
			<stop offset="0" stop-color="#4b4f67"/>
			<stop offset=".5" stop-color="#9a4844"/>
			<stop offset="1" stop-color="#f1411d"/>
		</linearGradient>
		<clipPath clipPathUnits="userSpaceOnUse" id="cp1">
			<path d="m48.28 146.56l-27.18 7.39q-2.23 0.6-4.52 0.98-2.28 0.37-4.59 0.52-2.31 0.14-4.62 0.06-2.31-0.09-4.61-0.4l27.18-7.39q2.3 0.31 4.61 0.4 2.31 0.08 4.62-0.06 2.31-0.15 4.59-0.52 2.29-0.38 4.52-0.98z"/>
		</clipPath>
		<linearGradient id="g4" x1="2.8" y1="151.1" x2="48.3" y2="151.1" gradientUnits="userSpaceOnUse">
			<stop offset="0" stop-color="#626993"/>
			<stop offset="1" stop-color="#dd5337"/>
		</linearGradient>
		<linearGradient id="g5" x1="81.2" y1="123.1" x2="40" y2="3.4" gradientUnits="userSpaceOnUse">
			<stop offset="0" stop-color="#4b4f67"/>
			<stop offset=".5" stop-color="#9a4844"/>
			<stop offset="1" stop-color="#f1411d"/>
		</linearGradient>
	</defs>
	<style>
		.s0 { fill: url(#g1) } 
		.s1 { fill: url(#g2) } 
		.s2 { fill: url(#g3) } 
		.s3 { fill: url(#g4) } 
		.s4 { fill: url(#g5) } 
	</style>
	<g id="Layer">
		<g id="Layer">
			<path id="Layer" class="s0" d="m27.5 19.2l-27.1 7.4-0.4-19.2 27.2-7.4z"/>
			<g id="Layer">
				<path id="Layer" class="s1" d="m43.1 127.6l-27.1 7.4c17.5-4.7 30-23.7 29.5-47.9-0.5-30.1-20.8-57.3-45.1-60.5l27.1-7.4c24.4 3.2 44.6 30.4 45.2 60.5 0.5 24.3-12 43.2-29.6 47.9z"/>
			</g>
			<path id="Layer" class="s2" d="m29.9 147.7l-27.1 7.4-0.4-19.2 27.2-7.4z"/>
			<g id="Layer">
				<g id="Clip-Path" clip-path="url(#cp1)">
					<g id="Layer">
						<path id="Layer" class="s3" d="m48.3 146.6l-27.2 7.4q-2.2 0.6-4.5 0.9-2.3 0.4-4.6 0.5-2.3 0.2-4.6 0.1-2.3-0.1-4.6-0.4l27.1-7.4q2.3 0.3 4.6 0.4 2.4 0.1 4.7 0 2.3-0.2 4.6-0.6 2.2-0.3 4.5-0.9z"/>
					</g>
				</g>
			</g>
			<path id="Layer" class="s4" d="m28.2 0c32.9 4.4 60.3 41 61 81.8 0.8 40.7-25.4 70.3-58.3 65.9l-0.3-19.2c24.3 3.2 43.7-18.7 43.1-48.8-0.6-30.1-20.8-57.3-45.2-60.5z"/>
		</g>
	</g>
</svg>