<?xml version="1.0" standalone="no"?>
<!DOCTYPE svg PUBLIC "-//W3C//DTD SVG 20010904//EN"
 "http://www.w3.org/TR/2001/REC-SVG-20010904/DTD/svg10.dtd">
<svg version="1.0" xmlns="http://www.w3.org/2000/svg"
 width="387.000000pt" height="86.000000pt" viewBox="0 0 387.000000 86.000000"
 preserveAspectRatio="xMidYMid meet">

<g transform="translate(0.000000,86.000000) scale(0.100000,-0.100000)"
fill="#000000" stroke="none">
<path d="M2997 844 c-14 -14 -7 -43 12 -54 11 -5 38 -10 60 -10 l40 0 25 -82
c14 -46 42 -137 62 -203 29 -94 38 -137 38 -199 1 -73 3 -80 28 -99 26 -20 32
-20 180 -9 84 7 189 12 234 12 91 0 128 16 105 44 -16 20 -63 20 -298 5 -179
-12 -218 -9 -192 16 9 9 97 24 252 43 131 16 242 33 247 38 5 5 24 87 42 183
31 169 32 173 13 187 -15 11 -80 14 -331 14 l-312 0 -19 58 -20 57 -79 3 c-44
1 -83 0 -87 -4z m401 -247 l3 -58 -73 3 -73 3 -14 43 c-21 67 -14 73 76 70
l78 -3 3 -58z m190 1 l3 -58 -76 0 -75 0 0 54 c0 34 5 56 13 60 6 2 39 4 72 3
l60 -2 3 -57z m175 55 c16 -4 18 -11 12 -41 -13 -74 -10 -72 -86 -72 l-69 0 0
53 c0 30 3 57 7 61 8 8 107 7 136 -1z m-363 -223 l0 -70 -45 0 -44 0 -21 66
c-11 36 -20 68 -20 70 0 2 29 4 65 4 l65 0 0 -70z m190 16 c0 -62 1 -61 -92
-72 l-58 -6 0 66 0 66 75 0 75 0 0 -54z m155 12 c-4 -24 -10 -46 -14 -50 -3
-3 -28 -8 -56 -10 l-50 -3 -3 39 c-5 61 0 66 69 66 l61 0 -7 -42z" fill="#e1251b"/>
<path d="M730 538 c0 -167 5 -321 10 -343 16 -72 98 -118 180 -100 26 6 30 11
30 41 0 33 -1 34 -43 34 -32 0 -49 6 -63 21 -18 20 -19 43 -22 335 l-3 314
-45 0 -44 0 0 -302z"/>
<path d="M2706 779 c-10 -99 -7 -550 4 -591 19 -67 102 -110 180 -93 26 6 30
11 30 41 0 33 -1 34 -43 34 -32 0 -49 6 -63 21 -18 20 -19 43 -22 335 l-3 314
-38 0 -38 0 -7 -61z"/>
<path d="M190 621 c-115 -35 -175 -126 -173 -261 1 -86 19 -139 66 -188 53
-56 102 -76 187 -76 64 -1 82 3 124 27 27 15 50 27 52 27 2 0 4 -11 4 -25 0
-22 4 -25 38 -25 l39 0 6 257 c8 277 8 273 -46 273 -20 0 -30 -7 -37 -25 -5
-14 -11 -25 -12 -25 -2 0 -25 11 -52 25 -51 26 -139 33 -196 16z m138 -76
c131 -55 163 -224 62 -325 -65 -65 -151 -66 -220 -4 -106 96 -79 272 50 328
45 19 62 20 108 1z"/>
<path d="M1180 621 c-116 -38 -173 -124 -173 -261 0 -87 22 -147 72 -198 49
-48 95 -65 181 -66 64 -1 82 3 124 27 27 15 50 27 52 27 1 0 4 -10 6 -22 3
-20 9 -23 43 -23 l40 0 0 254 0 255 -28 7 c-37 10 -57 2 -57 -22 0 -24 -11
-24 -55 3 -40 23 -159 34 -205 19z m143 -75 c130 -54 154 -256 40 -343 -77
-59 -188 -34 -240 55 -22 37 -25 52 -21 116 3 62 8 79 32 111 30 38 94 74 134
75 12 0 37 -6 55 -14z"/>
<path d="M1777 616 c-22 -8 -50 -25 -63 -37 -45 -42 -53 -130 -17 -185 18 -28
90 -58 176 -74 37 -7 78 -21 92 -32 35 -27 33 -70 -2 -98 -25 -19 -37 -22
-103 -18 -55 3 -87 11 -118 28 -40 23 -42 23 -62 5 -35 -32 -25 -54 37 -82 46
-21 72 -26 142 -27 104 -1 150 14 191 60 25 29 30 43 30 89 0 91 -43 124 -204
155 -42 9 -68 21 -88 40 -34 35 -35 41 -2 79 41 49 109 52 212 10 31 -13 35
-12 48 5 24 33 17 54 -23 72 -53 22 -197 28 -246 10z"/>
<path d="M2267 615 c-22 -7 -50 -24 -63 -36 -45 -42 -53 -130 -17 -185 18 -28
69 -50 171 -73 46 -10 92 -27 102 -36 27 -24 25 -61 -5 -90 -35 -36 -134 -35
-211 1 -53 25 -56 25 -75 8 -34 -31 -24 -53 38 -81 46 -21 72 -26 142 -27 104
-1 150 14 191 60 25 29 30 43 30 89 0 90 -43 124 -202 155 -70 14 -108 41
-108 79 0 65 93 99 180 66 70 -27 93 -25 104 8 9 24 7 31 -8 42 -45 34 -200
45 -269 20z"/>
<path d="M3235 125 c-14 -13 -25 -35 -25 -48 0 -54 87 -89 123 -49 24 27 21
74 -6 100 -30 29 -62 28 -92 -3z" fill="#e1251b"/>
<path d="M3652 127 c-44 -46 -17 -117 44 -117 68 0 97 68 49 115 -30 31 -65
32 -93 2z" fill="#e1251b"/>
</g>
</svg>
