<svg version="1.2" xmlns="http://www.w3.org/2000/svg" viewBox="0 0 1000 1000" width="1000" height="1000">
	<title>2809412-ai</title>
	<style>
		.s0 { fill: #e1e2fe } 
		.s1 { fill: #ecf1f7 } 
		.s2 { fill: #3e479b } 
		.s3 { opacity: .6;fill: #ef929c } 
		.s4 { fill: #ffffff } 
		.s5 { opacity: .7;fill: #6d6cd4 } 
		.s6 { fill: #599af2 } 
		.s7 { fill: #f7a9b4 } 
		.s8 { fill: #4c65ba } 
		.s9 { opacity: .4;fill: #ffffff } 
		.s10 { opacity: .4;fill: #f7a9b4 } 
		.s11 { opacity: .2;fill: #3e479b } 
	</style>
	<g id="BACKGROUND">
		<g id="&lt;Group&gt;">
			<g id="&lt;Group&gt;">
				<g id="&lt;Group&gt;" style="opacity: .4">
					<g id="&lt;Group&gt;">
						<g id="&lt;Group&gt;">
							<path id="&lt;Path&gt;" class="s0" d="m899.3 743.3c-65.8 78.3-173.2 107.6-275 117.8-108.8 11-219.8 5-325.3-23.7-52.6-14.3-105.2-35.1-144.3-73-52.5-50.8-74.7-129.5-61.2-201.2 21.1-111.6 119.4-199.7 233.7-202.4 31-0.8 55.3-26.8 53.2-57.8q-0.1-1.5-0.2-2.3c-15.6-149.3 157.8-219.1 281.7-176.2 41.5 14.4 78.4 42.4 103.6 78.3 25.3 35.9 23.7 77.7 44.1 114.1 12.1 21.6 33.2 36.2 51.7 52.6 52.1 45.8 87.4 110.8 95.2 179.7 1.7 14.6 2.1 29.5 1.2 44.2-3.2 54.5-23.3 108.1-58.4 149.9z"/>
						</g>
					</g>
				</g>
				<g id="&lt;Group&gt;" style="opacity: .3">
					<path id="&lt;Path&gt;" class="s0" d="m460.9 87.2c0 14.7-11.9 26.6-26.6 26.6-14.7 0-26.6-11.9-26.6-26.6 0-14.7 11.9-26.6 26.6-26.6 14.7 0 26.6 11.9 26.6 26.6z"/>
				</g>
				<g id="&lt;Group&gt;" style="opacity: .3">
					<path id="&lt;Path&gt;" class="s0" d="m953.1 398.3c0 7.6-6.1 13.7-13.7 13.7-7.6 0-13.7-6.1-13.7-13.7 0-7.6 6.1-13.7 13.7-13.7 7.6 0 13.7 6.1 13.7 13.7z"/>
				</g>
				<g id="&lt;Group&gt;" style="opacity: .3">
					<path id="&lt;Path&gt;" class="s0" d="m327.7 146.7c0 10.2-8.2 18.4-18.4 18.4-10.1 0-18.4-8.2-18.4-18.4 0-10.1 8.3-18.3 18.4-18.3 10.2 0 18.4 8.2 18.4 18.3z"/>
				</g>
				<g id="&lt;Group&gt;" style="opacity: .3">
					<path id="&lt;Path&gt;" class="s0" d="m139.2 813.4c0 23.1-18.7 41.8-41.8 41.8-23.2 0-41.9-18.7-41.9-41.8 0-23.1 18.7-41.9 41.9-41.9 23.1 0 41.8 18.8 41.8 41.9z"/>
				</g>
			</g>
		</g>
		<g id="&lt;Group&gt;">
			<g id="&lt;Group&gt;">
				<g id="&lt;Group&gt;" style="opacity: .5">
					<path id="&lt;Path&gt;" class="s1" d="m891.1 199.8c-14.6-21.7-50.3-41.6-38.4-64.8 11.9-23.3 56.6-24.2 79.8-12.2 23.3 11.9 32.4 40.4 20.5 63.7-11.9 23.2-41.5 43.5-61.9 13.3z"/>
				</g>
				<g id="&lt;Group&gt;" style="opacity: .5">
					<path id="&lt;Path&gt;" class="s0" d="m839.9 830c17.6-9.5 35.5-35.2 52.4-24.4 16.8 10.9 14.1 45 3.2 61.8-10.8 16.8-33.3 21.7-50.1 10.8-16.8-10.9-30.1-35-5.5-48.2z"/>
				</g>
				<g id="&lt;Group&gt;" style="opacity: .5">
					<path id="&lt;Path&gt;" class="s0" d="m155.3 118.3c-24 7.9-51.9 36-70.4 18.8-18.5-17.2-7.6-58.9 9.6-77.4 17.2-18.5 46.1-19.6 64.6-2.4 18.5 17.1 29.6 50-3.8 61z"/>
				</g>
			</g>
			<g id="&lt;Group&gt;">
				<g id="&lt;Group&gt;" style="opacity: .5">
					<path id="&lt;Path&gt;" class="s0" d="m837.8 789.3c-29.8 25.6-66 44.6-104.9 50.7-62.3 9.8-121.5-15.2-181.2-28.1-91.2-19.8-185-0.8-276.9-20.7-69.1-14.8-136.2-46.1-184.3-97.9-17.5-18.8-32.6-41-37.6-66.2-7-35.6 10.8-66.5 11.2-101.2 0.3-33.9-11.2-66-18.6-98.7-8-35.3-6.7-67.7 4-102.3 13.4-43.4 43.5-83.6 86.6-108.5 67.1-38.6 156-35 229.3-9.6 30.8 10.6 60.5 24.9 93.5 28.2 39.7 4 76.7-8.7 114.5-18.4 39.3-10.1 79.8-17.6 120.3-18.1 45-0.7 91 8 130.1 31.2 48.3 28.5 87.1 81.2 80.9 141.1-3 29.2-4.5 56.5-10.5 85.9-9.8 48.4 18.5 83.3 27.8 128.6 8.4 41.1 1.9 80-14.4 115.1-15.7 33.6-40.4 63.8-69.8 88.9z"/>
				</g>
				<g id="&lt;Group&gt;">
					<g id="&lt;Group&gt;" style="opacity: .8">
						<path id="&lt;Path&gt;" class="s0" d="m820.4 662.5c-9.5 30.5-55.4 74.6-83.6 89.4-130.4 68.4-272.1 70-413.8 23.3 0 0-139.7-45.9-139.7-45.9-65.7-21.6-109.2-84.6-105.1-153.6q0-0.6 0-1.3c2.7-40 16-79.2 38-112.1 20-29.8 47.5-63.1 54.4-99.6 5.5-29.1-6.4-58.6-7.8-88.2-3.1-64 44.3-120.7 98.8-143.9 51-21.7 110.9-19.4 160.8 4.5 27.1 13 51.6 32.6 69.6 57.5 15.9 22 25.3 55.3 56.1 58.9 55.8 6.6 114.4-17.5 170-21.8 37.3-2.9 76.9 2.1 107.2 25 19.7 14.9 34 36.3 43.9 59.4 20.4 47.9 21.2 103 4.4 152.2-11.4 33.3-39.3 58.6-49 92.5-8 28.3 1.6 57.8-0.9 86.4-0.5 5.8-1.6 11.6-3.3 17.3z"/>
					</g>
				</g>
			</g>
		</g>
		<g id="&lt;Group&gt;" style="opacity: .6">
			<path id="&lt;Path&gt;" class="s2" d="m944.3 763.2c0 4.9-4 9-9 9-5 0-9-4.1-9-9 0-5 4-9 9-9 5 0 9 4 9 9z"/>
		</g>
		<g id="&lt;Group&gt;" style="opacity: .6">
			<path id="&lt;Path&gt;" class="s2" d="m528.5 61.7c0 5-4 9-9 9-4.9 0-9-4-9-9 0-4.9 4.1-9 9-9 5 0 9 4.1 9 9z"/>
		</g>
		<g id="&lt;Group&gt;" style="opacity: .6">
			<path id="&lt;Path&gt;" class="s2" d="m203.4 846.2c0 4.9-4 9-9 9-5 0-9-4.1-9-9 0-5 4-9 9-9 5 0 9 4 9 9z"/>
		</g>
		<path id="&lt;Path&gt;" class="s3" d="m769.5 884c0 3.9-3.2 7-7 7-3.9 0-7-3.1-7-7 0-3.9 3.1-7 7-7 3.8 0 7 3.1 7 7z"/>
		<path id="&lt;Path&gt;" class="s3" d="m913.3 920.1c0 5-4.1 9-9 9-5 0-9-4-9-9 0-4.9 4-9 9-9 4.9 0 9 4.1 9 9z"/>
		<g id="&lt;Group&gt;" style="opacity: .6">
			<path id="&lt;Path&gt;" class="s2" d="m155.8 165.1c0 1.7-1.4 3-3 3-1.7 0-3-1.3-3-3 0-1.6 1.3-3 3-3 1.6 0 3 1.4 3 3z"/>
		</g>
		<path id="&lt;Path&gt;" class="s3" d="m793.7 125.5c-1.2 5.8-7 9.6-12.8 8.3-5.8-1.2-9.6-7-8.3-12.8 1.2-5.8 7-9.6 12.8-8.3 5.9 1.2 9.6 7 8.3 12.8z"/>
		<path id="&lt;Path&gt;" class="s3" d="m216.1 71.6c-0.4 2.3-2.7 3.8-5 3.3-2.3-0.5-3.7-2.8-3.2-5.1 0.4-2.3 2.7-3.7 5-3.2 2.3 0.5 3.7 2.7 3.2 5z"/>
		<g id="&lt;Group&gt;" style="opacity: .6">
			<path id="&lt;Path&gt;" class="s2" d="m891.7 58c-0.5 2-2.4 3.2-4.3 2.8-2-0.4-3.2-2.3-2.8-4.3 0.4-1.9 2.3-3.2 4.3-2.7 1.9 0.4 3.2 2.3 2.8 4.2z"/>
		</g>
		<g id="&lt;Group&gt;" style="opacity: .6">
			<path id="&lt;Path&gt;" class="s2" d="m129.6 917.3c-0.5 1.9-2.4 3.2-4.3 2.8-2-0.5-3.2-2.4-2.8-4.3 0.4-2 2.3-3.2 4.3-2.8 1.9 0.4 3.2 2.3 2.8 4.3z"/>
		</g>
	</g>
	<g id="OBJECTS">
		<g id="&lt;Group&gt;">
			<g id="&lt;Group&gt;" style="opacity: .7">
				<g id="&lt;Group&gt;">
					<path id="&lt;Compound Path&gt;" fill-rule="evenodd" class="s4" d="m255.8 398.1q-1.5 0-2.9-0.4l-16.8-4.6c-5.9-1.6-9.4-7.7-7.8-13.7l5.6-20.5c-10.3-5.3-19.4-12.3-27.1-21l-18.4 10.6c-2.6 1.5-5.6 1.8-8.5 1-2.8-0.7-5.2-2.6-6.7-5.2l-8.6-15.1c-3.1-5.3-1.2-12.1 4.1-15.2l18.5-10.5c-3.5-11-5-22.4-4.3-34l-20.5-5.6c-5.9-1.6-9.4-7.7-7.8-13.6l4.6-16.8c1.6-5.9 7.7-9.4 13.7-7.8l20.5 5.6c5.3-10.3 12.3-19.4 21-27.1l-10.6-18.4c-1.5-2.6-1.8-5.6-1.1-8.5 0.8-2.8 2.7-5.2 5.3-6.7l15.1-8.6c5.3-3.1 12.1-1.2 15.2 4.1l10.5 18.5c11-3.5 22.4-5 34-4.3l5.6-20.5c1.6-5.9 7.7-9.4 13.6-7.8l16.8 4.6c5.9 1.6 9.4 7.7 7.8 13.7l-5.6 20.5c10.3 5.3 19.4 12.3 27.1 21l18.4-10.6c2.6-1.5 5.6-1.8 8.5-1 2.8 0.7 5.2 2.6 6.7 5.2l8.6 15.1c1.5 2.6 1.9 5.6 1.1 8.4-0.8 2.9-2.6 5.3-5.2 6.8l-18.5 10.5c3.5 11 4.9 22.4 4.3 34l20.5 5.6c2.9 0.8 5.3 2.6 6.7 5.2 1.5 2.6 1.9 5.6 1.1 8.4l-4.6 16.8c-1.6 5.9-7.7 9.4-13.7 7.8l-20.5-5.6c-5.3 10.3-12.3 19.4-21 27.1l10.6 18.4c1.4 2.6 1.8 5.6 1 8.5-0.7 2.8-2.6 5.2-5.2 6.7l-15.1 8.6c-2.6 1.5-5.6 1.9-8.4 1.1-2.9-0.8-5.3-2.6-6.8-5.2l-10.5-18.5c-11 3.5-22.4 5-34 4.3l-5.6 20.5c-0.8 2.9-2.6 5.3-5.2 6.7-1.7 1-3.6 1.5-5.5 1.5zm-47.6-67.8l1.6 1.9c8 9.5 17.7 17 28.9 22.4l2.3 1.1-6.9 25.3c-0.4 1.3-0.2 2.7 0.5 3.9 0.6 1.2 1.7 2.1 3 2.4l16.8 4.6c1.4 0.4 2.7 0.2 3.9-0.5 1.2-0.7 2.1-1.8 2.4-3.1l7-25.3 2.4 0.2c12.4 1.1 24.7-0.5 36.4-4.6l2.4-0.8 12.9 22.8c0.7 1.2 1.8 2 3.1 2.4 1.4 0.4 2.7 0.2 3.9-0.5l15.2-8.6c1.1-0.7 2-1.8 2.4-3.1 0.3-1.3 0.1-2.7-0.5-3.9l-13-22.8 1.9-1.6c9.5-8 17-17.7 22.4-28.9l1.1-2.3 25.3 6.9c2.7 0.8 5.6-0.8 6.3-3.5l4.6-16.8c0.4-1.4 0.2-2.7-0.5-3.9-0.7-1.2-1.8-2.1-3.1-2.4l-25.3-7 0.2-2.4c1.1-12.4-0.5-24.7-4.6-36.4l-0.8-2.4 22.8-12.9c1.2-0.7 2-1.8 2.4-3.1 0.4-1.4 0.2-2.7-0.5-3.9l-8.6-15.2c-0.7-1.1-1.8-2-3.1-2.4-1.3-0.3-2.7-0.1-3.9 0.5l-22.8 13-1.6-1.9c-8-9.5-17.8-17-28.9-22.4l-2.3-1.1 6.9-25.3c0.4-1.3 0.2-2.7-0.5-3.9-0.6-1.2-1.7-2-3.1-2.4l-16.8-4.6c-2.7-0.8-5.5 0.9-6.2 3.6l-7 25.3-2.4-0.2c-12.4-1.1-24.7 0.5-36.4 4.6l-2.4 0.8-13-22.8c-0.6-1.2-1.7-2-3-2.4-1.4-0.4-2.7-0.2-3.9 0.5l-15.2 8.6c-1.2 0.7-2 1.8-2.4 3.1-0.3 1.3-0.2 2.7 0.5 3.9l13 22.8-1.9 1.6c-9.5 8-17 17.8-22.4 28.9l-1.1 2.3-25.3-6.9c-1.3-0.4-2.7-0.2-3.9 0.5-1.2 0.6-2.1 1.7-2.4 3.1l-4.6 16.8c-0.4 1.3-0.2 2.7 0.5 3.8 0.7 1.2 1.8 2.1 3.1 2.4l25.3 7-0.2 2.4c-1.1 12.4 0.5 24.7 4.6 36.4l0.8 2.4-22.8 13c-1.2 0.6-2 1.7-2.4 3-0.4 1.4-0.2 2.7 0.5 3.9l8.6 15.2c0.7 1.1 1.8 2 3.1 2.4 1.3 0.3 2.7 0.1 3.9-0.5zm69.3-5.3c-4.4 0-8.9-0.6-13.3-1.8-12.9-3.6-23.6-11.9-30.3-23.5-6.6-11.7-8.3-25.2-4.8-38.1 3.6-12.9 11.9-23.7 23.5-30.3 11.7-6.6 25.2-8.3 38.1-4.8 12.9 3.5 23.7 11.9 30.3 23.5 6.6 11.6 8.3 25.2 4.8 38.1-3.5 12.9-11.9 23.6-23.5 30.3-7.7 4.3-16.2 6.6-24.8 6.6zm-0.1-94.3c-7.6 0-15 2-21.8 5.8-10.2 5.9-17.6 15.3-20.7 26.7-3.1 11.4-1.6 23.3 4.3 33.5 5.8 10.2 15.3 17.6 26.6 20.7 11.4 3.1 23.3 1.6 33.5-4.2 10.3-5.9 17.6-15.4 20.7-26.7 3.1-11.4 1.6-23.3-4.2-33.5-5.9-10.2-15.3-17.6-26.7-20.7-3.9-1.1-7.8-1.6-11.7-1.6z"/>
				</g>
			</g>
			<g id="&lt;Group&gt;" style="opacity: .7">
				<path id="&lt;Compound Path&gt;" fill-rule="evenodd" class="s4" d="m742.2 344l-113.2 2c-3.3 0.1-6-2-6-4.6l-1.4-75.1c0-2.6 2.6-4.8 5.9-4.8l113.1-2.1c3.3-0.1 6 2 6 4.6l1.4 75.1c0.1 2.6-2.6 4.8-5.8 4.9zm-114.7-81.1c-2.5 0-4.5 1.5-4.5 3.4l1.4 75.1c0 1.8 2.1 3.3 4.6 3.2l113.1-2c2.5-0.1 4.5-1.6 4.5-3.4l-1.4-75.2c0-1.8-2.1-3.2-4.5-3.2z"/>
				<path id="&lt;Path&gt;" class="s4" d="m745.4 276l-122.9 2.3v-1.4l122.9-2.3z"/>
				<path id="&lt;Compound Path&gt;" fill-rule="evenodd" class="s4" d="m631.4 273.1c-1.5 0-2.7-1.2-2.7-2.6 0-1.5 1.1-2.7 2.6-2.7 1.4 0 2.7 1.1 2.7 2.6 0 1.4-1.2 2.7-2.6 2.7zm-0.1-3.9c-0.7 0-1.2 0.6-1.2 1.3 0 0.6 0.6 1.2 1.3 1.2 0.6 0 1.2-0.6 1.2-1.3 0-0.7-0.6-1.2-1.3-1.2z"/>
				<path id="&lt;Compound Path&gt;" fill-rule="evenodd" class="s4" d="m638.7 272.9c-1.5 0.1-2.7-1.1-2.7-2.6 0-1.4 1.1-2.6 2.6-2.6 1.4-0.1 2.6 1.1 2.7 2.6 0 1.4-1.2 2.6-2.6 2.6zm-0.1-3.8c-0.7 0-1.2 0.5-1.2 1.2 0 0.7 0.6 1.3 1.2 1.2 0.7 0 1.3-0.5 1.3-1.2 0-0.7-0.6-1.3-1.3-1.2z"/>
				<path id="&lt;Compound Path&gt;" fill-rule="evenodd" class="s4" d="m645.8 272.8c-1.4 0-2.6-1.1-2.7-2.6 0-1.4 1.2-2.6 2.6-2.7 1.5 0 2.7 1.2 2.7 2.6 0 1.5-1.1 2.7-2.6 2.7zm0-3.9c-0.7 0-1.3 0.6-1.3 1.3 0 0.7 0.6 1.2 1.3 1.2 0.7 0 1.2-0.6 1.2-1.3 0-0.6-0.6-1.2-1.2-1.2z"/>
			</g>
			<g id="&lt;Group&gt;" style="opacity: .7">
				<path id="&lt;Compound Path&gt;" fill-rule="evenodd" class="s4" d="m362.4 793l-113.2 2.1c-3.2 0.1-5.9-2-6-4.6l-1.3-75.1c-0.1-2.6 2.5-4.8 5.8-4.9l113.2-2c3.2-0.1 5.9 2 6 4.6l1.3 75.1c0.1 2.6-2.5 4.8-5.8 4.8zm-114.7-81.1c-2.5 0.1-4.5 1.6-4.4 3.4l1.3 75.2c0.1 1.8 2.1 3.2 4.6 3.2l113.2-2.1c2.5 0 4.5-1.5 4.4-3.3l-1.3-75.2c-0.1-1.8-2.1-3.3-4.6-3.2z"/>
				<path id="&lt;Path&gt;" class="s4" d="m365.6 725.1l-122.8 2.2v-1.4l122.8-2.2z"/>
				<path id="&lt;Compound Path&gt;" fill-rule="evenodd" class="s4" d="m251.6 722.2c-1.5 0-2.7-1.2-2.7-2.6 0-1.5 1.2-2.7 2.6-2.7 1.5-0.1 2.7 1.1 2.7 2.6 0 1.4-1.1 2.6-2.6 2.7zm-0.1-3.9c-0.6 0-1.2 0.5-1.2 1.2 0 0.7 0.6 1.3 1.3 1.3 0.7-0.1 1.2-0.6 1.2-1.3 0-0.7-0.6-1.2-1.3-1.2z"/>
				<path id="&lt;Compound Path&gt;" fill-rule="evenodd" class="s4" d="m258.9 722c-1.5 0-2.7-1.1-2.7-2.6 0-1.4 1.1-2.6 2.6-2.7 1.5 0 2.7 1.2 2.7 2.6 0 1.5-1.1 2.7-2.6 2.7zm-0.1-3.9c-0.7 0-1.2 0.6-1.2 1.3 0 0.7 0.6 1.2 1.3 1.2 0.7 0 1.2-0.6 1.2-1.2 0-0.7-0.6-1.3-1.3-1.3z"/>
				<path id="&lt;Compound Path&gt;" fill-rule="evenodd" class="s4" d="m266.1 721.9c-1.5 0-2.7-1.1-2.7-2.6-0.1-1.5 1.1-2.7 2.6-2.7 1.4 0 2.6 1.1 2.6 2.6 0.1 1.5-1.1 2.7-2.5 2.7zm-0.1-3.9c-0.7 0-1.3 0.6-1.2 1.3 0 0.7 0.5 1.2 1.2 1.2 0.7 0 1.3-0.6 1.2-1.3 0-0.7-0.5-1.2-1.2-1.2z"/>
			</g>
			<g id="&lt;Group&gt;" style="opacity: .5">
				<g id="&lt;Group&gt;">
					<path id="&lt;Compound Path&gt;" fill-rule="evenodd" class="s4" d="m833.4 587.7l-6.9 8.6c-1.8 2.2-5 2.5-7.2 0.8l-11.7-9.4c-6.3 5.4-13.4 9.2-21 11.5l1.6 14.9c0.3 2.9-1.7 5.4-4.5 5.7l-11 1.2c-2.8 0.3-5.3-1.7-5.6-4.5l-1.7-14.9c-7.9-0.6-15.7-2.8-23-6.7l-9.4 11.7c-1.7 2.2-5 2.5-7.2 0.8l-8.6-6.9c-2.2-1.8-2.5-5-0.8-7.2l9.4-11.7c-5.3-6.3-9.2-13.4-11.5-21l-14.9 1.6c-2.8 0.3-5.4-1.7-5.7-4.5l-1.2-11c-0.3-2.8 1.7-5.3 4.6-5.6l14.9-1.7c0.5-7.9 2.8-15.7 6.7-23l-11.8-9.4c-2.2-1.7-2.5-5-0.7-7.2l6.8-8.6c1.8-2.2 5-2.5 7.2-0.8l11.8 9.4c6.2-5.3 13.4-9.2 20.9-11.5l-1.6-14.9c-0.3-2.8 1.7-5.4 4.5-5.7l11-1.2c2.8-0.3 5.3 1.7 5.6 4.6l1.7 14.9c7.9 0.6 15.7 2.8 23 6.7l9.4-11.7c1.7-2.3 5-2.6 7.2-0.8l8.6 6.8c2.2 1.8 2.5 5 0.8 7.3l-9.4 11.7c5.4 6.2 9.2 13.4 11.5 21l14.9-1.7c2.8-0.3 5.4 1.7 5.7 4.5l1.2 11c0.3 2.8-1.7 5.3-4.5 5.7l-15 1.6c-0.5 7.9-2.8 15.7-6.6 23l11.7 9.4c2.2 1.7 2.5 5 0.8 7.2zm-40.4-25.3c10.3-12.8 8.2-31.6-4.6-41.9-12.9-10.3-31.6-8.2-41.9 4.6-10.3 12.9-8.2 31.6 4.6 41.9 12.9 10.3 31.6 8.2 41.9-4.6z"/>
					<path id="&lt;Compound Path&gt;" fill-rule="evenodd" class="s4" d="m772.1 622c-1.3 0-2.7-0.4-3.8-1.3-1.3-1-2.1-2.5-2.2-4.1l-1.6-14.1c-7.7-0.7-15-2.8-21.8-6.4l-8.9 11.1c-1 1.3-2.5 2.1-4.1 2.3-1.6 0.1-3.2-0.3-4.5-1.4l-8.6-6.8c-1.3-1.1-2.1-2.5-2.2-4.2-0.2-1.6 0.2-3.2 1.3-4.5l8.8-11c-4.9-5.9-8.6-12.6-10.9-19.9l-14.1 1.5c-1.6 0.2-3.2-0.3-4.5-1.3-1.3-1-2.1-2.5-2.3-4.1l-1.2-11c-0.2-1.6 0.3-3.2 1.3-4.5 1.1-1.2 2.5-2 4.1-2.2l14.1-1.6c0.7-7.6 2.8-15 6.4-21.8l-11.1-8.9c-1.3-1-2.1-2.5-2.2-4.1-0.2-1.6 0.2-3.2 1.3-4.5l6.9-8.6c1-1.3 2.4-2.1 4.1-2.2 1.6-0.2 3.2 0.2 4.5 1.3l11 8.8c5.9-4.9 12.6-8.6 20-10.9l-1.6-14.1c-0.4-3.4 2.1-6.4 5.4-6.8l11-1.2c3.3-0.3 6.4 2.1 6.7 5.4l1.6 14.1c7.7 0.7 15 2.8 21.8 6.4l8.9-11.1c2.1-2.6 6-3 8.6-0.9l8.6 6.9c1.3 1 2.1 2.4 2.3 4.1 0.1 1.6-0.3 3.2-1.4 4.5l-8.8 11c4.9 5.9 8.6 12.6 10.9 20l14.1-1.6c1.6-0.2 3.2 0.3 4.5 1.3 1.3 1.1 2.1 2.5 2.3 4.1l1.2 11c0.2 1.6-0.3 3.2-1.3 4.5-1 1.3-2.5 2.1-4.1 2.2l-14.1 1.6c-0.7 7.7-2.8 15-6.4 21.8l11.1 8.9c1.3 1 2.1 2.5 2.2 4.1 0.2 1.6-0.2 3.2-1.3 4.5l-6.8 8.6c-2.2 2.6-6 3.1-8.7 1l-11-8.9c-5.9 4.9-12.6 8.6-20 10.9l1.6 14.1c0.2 1.7-0.3 3.3-1.3 4.5-1 1.3-2.5 2.1-4.1 2.3l-11 1.2q-0.3 0-0.7 0zm-29.9-28.4l0.7 0.4c7 3.8 14.6 6 22.6 6.6h0.8l1.8 15.8c0.1 1.1 0.6 2 1.5 2.7 0.8 0.7 1.9 1 3 0.9l11-1.2c1.1-0.1 2-0.7 2.7-1.5 0.7-0.9 1-2 0.9-3.1l-1.7-15.7 0.8-0.2c7.6-2.3 14.6-6.2 20.6-11.4l0.6-0.5 12.4 9.9c1.8 1.4 4.4 1.1 5.8-0.6l6.9-8.6c0.7-0.9 1-2 0.9-3.1-0.2-1.1-0.7-2.1-1.6-2.7l-12.3-9.9 0.4-0.8c3.7-7 6-14.6 6.5-22.6l0.1-0.8 15.7-1.7c1.1-0.2 2.1-0.7 2.8-1.6 0.7-0.8 1-1.9 0.9-3l-1.2-10.9c-0.1-1.1-0.7-2.1-1.5-2.8-0.9-0.7-2-1-3.1-0.9l-15.7 1.7-0.2-0.8c-2.3-7.6-6.2-14.5-11.4-20.6l-0.5-0.6 9.9-12.4c0.7-0.8 1-1.9 0.9-3-0.2-1.1-0.7-2.1-1.6-2.8l-8.5-6.9c-1.8-1.4-4.4-1.1-5.9 0.7l-9.9 12.3-0.7-0.4c-7-3.7-14.6-5.9-22.6-6.5l-0.8-0.1-1.7-15.7c-0.3-2.3-2.4-3.9-4.6-3.7l-10.9 1.2c-1.1 0.1-2.1 0.7-2.8 1.5-0.7 0.9-1 2-0.9 3.1l1.7 15.7-0.8 0.3c-7.6 2.3-14.5 6.1-20.6 11.3l-0.6 0.5-12.4-9.9c-0.8-0.7-1.9-1-3-0.9-1.1 0.2-2.1 0.7-2.8 1.6l-6.9 8.6c-0.7 0.8-1 1.9-0.9 3 0.2 1.1 0.7 2.1 1.6 2.8l12.3 9.9-0.4 0.7c-3.7 7-6 14.6-6.5 22.6l-0.1 0.8-15.7 1.8c-1.1 0.1-2.1 0.6-2.8 1.5-0.7 0.8-1 1.9-0.9 3l1.2 11c0.1 1.1 0.7 2 1.5 2.7 0.9 0.7 2 1 3.1 0.9l15.7-1.7 0.2 0.8c2.4 7.6 6.2 14.6 11.4 20.6l0.5 0.6-9.9 12.4c-0.7 0.9-1 1.9-0.9 3 0.2 1.1 0.7 2.1 1.6 2.8l8.6 6.9c0.8 0.7 1.9 1 3 0.9 1.1-0.2 2.1-0.7 2.8-1.6zm27.5-19c-6.7 0-13.5-2.2-19.2-6.8-6.4-5.1-10.4-12.4-11.3-20.6-0.9-8.2 1.4-16.2 6.5-22.6 5.2-6.4 12.5-10.5 20.7-11.4 8.2-0.9 16.2 1.5 22.6 6.6 13.2 10.6 15.4 30 4.8 43.3-6.1 7.5-15.1 11.5-24.1 11.5zm0.1-59.6q-1.6 0-3.2 0.2c-7.6 0.9-14.5 4.6-19.3 10.6-9.9 12.4-7.9 30.5 4.4 40.5 12.4 9.9 30.6 7.9 40.5-4.5 9.9-12.4 7.9-30.5-4.5-40.4-5.1-4.2-11.4-6.4-17.9-6.4z"/>
				</g>
			</g>
			<g id="&lt;Group&gt;" style="opacity: .4">
				<path id="&lt;Compound Path&gt;" fill-rule="evenodd" class="s4" d="m907.2 669.4h-113.3c-1.9 0-3.5-1.9-3.5-4.3v-41.6c0-2.4 1.6-4.2 3.5-4.2h113.3c1.9 0 3.5 1.8 3.5 4.2v41.6c0 2.4-1.6 4.3-3.5 4.3zm-113.3-48.1c-0.8 0-1.5 1-1.5 2.2v41.6c0 1.3 0.7 2.3 1.5 2.3h113.3c0.8 0 1.5-1 1.5-2.3v-41.6c0-1.2-0.7-2.2-1.5-2.2z"/>
				<g id="&lt;Group&gt;">
					<path id="&lt;Path&gt;" class="s4" d="m890.4 637.4h-76.7v-2h76.7z"/>
					<path id="&lt;Compound Path&gt;" fill-rule="evenodd" class="s4" d="m890.4 638.4h-76.7c-1.1 0-2-0.9-2-2 0-1.1 0.9-2 2-2h76.7c1.1 0 2 0.9 2 2 0 1.1-0.9 2-2 2zm0-2v1-1z"/>
				</g>
				<g id="&lt;Group&gt;">
					<path id="&lt;Path&gt;" class="s4" d="m848 646.5h-34.3v-2h34.3z"/>
					<path id="&lt;Compound Path&gt;" fill-rule="evenodd" class="s4" d="m848 647.5h-34.3c-1.1 0-2-0.9-2-2 0-1.1 0.9-2 2-2h34.3c1.1 0 2 0.9 2 2 0 1.1-0.9 2-2 2zm0-2v1-1z"/>
				</g>
				<g id="&lt;Group&gt;">
					<path id="&lt;Path&gt;" class="s4" d="m890.4 646.5h-34.3v-2h34.3z"/>
					<path id="&lt;Compound Path&gt;" fill-rule="evenodd" class="s4" d="m890.4 647.5h-34.3c-1.1 0-2-0.9-2-2 0-1.1 0.9-2 2-2h34.3c1.1 0 2 0.9 2 2 0 1.1-0.9 2-2 2zm0-2v1-1z"/>
				</g>
				<g id="&lt;Group&gt;">
					<path id="&lt;Path&gt;" class="s4" d="m890.4 656h-76.7v-2h76.7z"/>
					<path id="&lt;Compound Path&gt;" fill-rule="evenodd" class="s4" d="m890.4 657h-76.7c-1.1 0-2-0.9-2-2 0-1.1 0.9-2 2-2h76.7c1.1 0 2 0.9 2 2 0 1.1-0.9 2-2 2zm0-2v1-1z"/>
				</g>
			</g>
			<g id="&lt;Group&gt;" style="opacity: .5">
				<path id="&lt;Compound Path&gt;" fill-rule="evenodd" class="s4" d="m591.9 854.6c-1.6 0-3.1-0.5-4.4-1.5-1.4-1.2-2.3-2.8-2.5-4.7l-1.4-12.8c-7-0.7-13.7-2.6-19.9-5.8l-8.1 10.1c-2.4 3-6.8 3.5-9.8 1.1l-8.3-6.7c-1.4-1.2-2.3-2.8-2.5-4.7-0.2-1.8 0.3-3.6 1.5-5.1l8-10c-4.4-5.4-7.8-11.5-10-18.2l-12.8 1.4c-3.8 0.4-7.2-2.3-7.6-6.1l-1.2-10.6c-0.4-3.8 2.3-7.3 6.2-7.7l12.7-1.4c0.8-6.9 2.7-13.6 5.8-19.9l-10-8c-3-2.4-3.5-6.8-1.1-9.8l6.7-8.3c1.1-1.5 2.8-2.4 4.6-2.6 1.9-0.2 3.7 0.4 5.2 1.5l10 8.1c5.4-4.5 11.5-7.8 18.1-10l-1.4-12.8c-0.2-1.9 0.4-3.7 1.5-5.1 1.2-1.5 2.8-2.4 4.7-2.6l10.6-1.1c1.8-0.2 3.6 0.3 5.1 1.4 1.4 1.2 2.3 2.9 2.6 4.7l1.4 12.8c6.9 0.7 13.6 2.6 19.9 5.8l8-10.1c2.4-3 6.8-3.4 9.8-1l8.3 6.6c1.4 1.2 2.3 2.8 2.5 4.7 0.3 1.8-0.3 3.7-1.4 5.1l-8.1 10c4.4 5.5 7.8 11.6 10 18.2l12.8-1.4c3.8-0.4 7.2 2.3 7.7 6.1l1.1 10.6c0.4 3.8-2.3 7.3-6.1 7.7l-12.8 1.4c-0.7 7-2.7 13.6-5.8 19.9l10 8c1.5 1.2 2.4 2.9 2.6 4.7 0.2 1.9-0.3 3.7-1.5 5.1l-6.6 8.3c-1.2 1.5-2.9 2.4-4.7 2.6-1.9 0.2-3.7-0.3-5.1-1.5l-10.1-8c-5.4 4.4-11.5 7.7-18.1 9.9l1.4 12.8c0.4 3.8-2.4 7.3-6.2 7.7l-10.5 1.2q-0.4 0-0.8 0zm-29.3-29.8l1.5 0.8c6.7 3.5 13.9 5.6 21.4 6.2l1.7 0.1 1.7 16.1c0.1 0.8 0.5 1.5 1.1 2 0.7 0.5 1.4 0.7 2.2 0.6l10.6-1.2c0.8-0.1 1.5-0.4 2-1.1 0.5-0.6 0.7-1.3 0.6-2.1l-1.8-16.1 1.6-0.5c7.3-2.2 13.9-5.8 19.6-10.7l1.3-1.1 12.6 10.1c0.6 0.5 1.4 0.7 2.1 0.6 0.8-0.1 1.5-0.5 2-1.1l6.7-8.3c0.5-0.6 0.7-1.4 0.6-2.1-0.1-0.8-0.5-1.5-1.1-2l-12.6-10.1 0.8-1.5c3.6-6.7 5.7-13.9 6.2-21.4l0.2-1.7 16-1.8c1.7-0.2 2.8-1.6 2.6-3.2l-1.1-10.6c-0.2-1.6-1.7-2.8-3.3-2.6l-16.1 1.7-0.4-1.6c-2.2-7.2-5.8-13.8-10.8-19.5l-1.1-1.3 10.1-12.6c0.5-0.6 0.8-1.4 0.7-2.2-0.1-0.8-0.5-1.5-1.1-2l-8.3-6.6c-1.3-1-3.2-0.8-4.2 0.4l-10.1 12.7-1.5-0.8c-6.6-3.6-13.8-5.7-21.4-6.3l-1.7-0.1-1.7-16.1c-0.1-0.7-0.5-1.4-1.1-1.9-0.6-0.5-1.4-0.8-2.2-0.7l-10.6 1.2c-0.8 0.1-1.5 0.5-2 1.1-0.4 0.6-0.7 1.4-0.6 2.2l1.8 16-1.6 0.5c-7.3 2.2-13.8 5.8-19.6 10.8l-1.2 1-12.6-10.1c-0.7-0.5-1.4-0.7-2.2-0.6-0.8 0.1-1.5 0.5-2 1.1l-6.7 8.3c-0.5 0.6-0.7 1.4-0.6 2.2 0.1 0.8 0.5 1.5 1.1 2l12.6 10.1-0.8 1.4c-3.6 6.7-5.7 13.9-6.2 21.5l-0.1 1.6-16.1 1.8c-1.6 0.2-2.8 1.6-2.6 3.3l1.1 10.5c0.2 1.7 1.7 2.8 3.3 2.7l16.1-1.8 0.5 1.6c2.1 7.2 5.8 13.8 10.7 19.5l1.1 1.3-10.1 12.6c-0.5 0.6-0.7 1.4-0.6 2.2 0 0.8 0.4 1.5 1 2l8.3 6.6c1.3 1.1 3.2 0.9 4.2-0.4zm26.9-16.1c-6.7 0-13.5-2.2-19.2-6.8-6.4-5.1-10.4-12.4-11.4-20.6-0.9-8.2 1.5-16.2 6.6-22.6 5.2-6.4 12.5-10.5 20.7-11.4 8.2-0.9 16.2 1.5 22.6 6.6 6.4 5.1 10.5 12.5 11.4 20.7 0.9 8.1-1.5 16.2-6.6 22.6-6.1 7.6-15.1 11.5-24.1 11.5zm0.1-57.6q-1.5 0-3 0.2c-7.1 0.8-13.5 4.3-17.9 9.9-4.5 5.6-6.6 12.5-5.8 19.7 0.8 7.1 4.3 13.5 9.9 17.9 11.5 9.3 28.4 7.4 37.7-4.1 4.4-5.6 6.5-12.6 5.7-19.7-0.8-7.1-4.3-13.5-9.9-18-4.8-3.8-10.6-5.9-16.7-5.9z"/>
			</g>
		</g>
		<g id="&lt;Group&gt;" style="opacity: .6">
			<g id="&lt;Group&gt;">
				<path id="&lt;Path&gt;" class="s5" d="m332.6 373.2l3.7 304.5c0.1 3.8-3 6.9-6.8 7l-182.9 2.2c-3.8 0.1-6.9-3-7-6.8l-3.7-304.5c0-3.8 3-6.9 6.8-6.9l183-2.3c3.8 0 6.9 3 6.9 6.8z"/>
				<g id="&lt;Group&gt;">
					<path id="&lt;Path&gt;" class="s2" d="m333.3 373.1l0.2 18.1-196.7 2.4-0.2-18.4c-0.1-3.7 2.8-6.6 6.5-6.7l183.2-2.2c3.8-0.1 6.9 3 7 6.8z"/>
				</g>
			</g>
			<path id="&lt;Compound Path&gt;" fill-rule="evenodd" class="s4" d="m150.1 384.6c-2.2 0-4-1.8-4.1-4 0-2.3 1.8-4.1 4.1-4.1 2.2 0 4 1.8 4 4 0.1 2.2-1.7 4.1-4 4.1zm0-6.5c-1.4 0-2.4 1.1-2.4 2.5 0 1.3 1.1 2.4 2.4 2.4 1.4 0 2.4-1.1 2.4-2.5 0-1.3-1.1-2.4-2.4-2.4z"/>
			<path id="&lt;Compound Path&gt;" fill-rule="evenodd" class="s4" d="m163.7 384.5c-2.3 0-4.1-1.8-4.1-4 0-2.3 1.8-4.1 4-4.1 2.2 0 4.1 1.8 4.1 4 0 2.2-1.8 4.1-4 4.1zm-0.1-6.5c-1.3 0-2.4 1.1-2.4 2.5 0 1.3 1.1 2.4 2.4 2.4 1.4 0 2.5-1.1 2.5-2.5-0.1-1.3-1.2-2.4-2.5-2.4z"/>
			<path id="&lt;Compound Path&gt;" fill-rule="evenodd" class="s4" d="m176.8 384.4c-2.2 0-4.1-1.8-4.1-4 0-2.3 1.8-4.1 4-4.1 2.3 0 4.1 1.8 4.1 4 0 2.2-1.8 4.1-4 4.1zm0-6.5c-1.4 0-2.5 1.1-2.5 2.5 0.1 1.3 1.2 2.4 2.5 2.4 1.3 0 2.4-1.1 2.4-2.5 0-1.3-1.1-2.4-2.4-2.4z"/>
			<path id="&lt;Path&gt;" class="s4" d="m244.5 421.7l-90.8 0.7c-0.9 0-1.7-0.7-1.7-1.6 0-0.9 0.7-1.7 1.6-1.7l90.9-0.6c0.9-0.1 1.7 0.7 1.7 1.6 0 0.9-0.8 1.6-1.7 1.6z"/>
			<path id="&lt;Path&gt;" class="s2" d="m274.8 421.5l-18.8 0.1c-0.9 0-1.6-0.7-1.6-1.6-0.1-0.9 0.7-1.6 1.6-1.6l18.8-0.2c0.9 0 1.6 0.7 1.7 1.6 0 0.9-0.8 1.7-1.7 1.7z"/>
			<path id="&lt;Path&gt;" class="s4" d="m245.1 497.2l-90.9 0.6c-0.9 0.1-1.6-0.7-1.6-1.6 0-0.9 0.7-1.6 1.6-1.6l90.9-0.7c0.9 0 1.6 0.7 1.6 1.6 0 0.9-0.7 1.6-1.6 1.7z"/>
			<path id="&lt;Path&gt;" class="s6" d="m275.4 496.9l-18.8 0.2c-0.9 0-1.7-0.7-1.7-1.6 0-0.9 0.7-1.7 1.6-1.7l18.9-0.1c0.9 0 1.6 0.7 1.6 1.6 0 0.9-0.7 1.6-1.6 1.6z"/>
			<path id="&lt;Path&gt;" class="s6" d="m244.8 457.7l-90.9 0.7c-0.9 0-1.6-0.7-1.6-1.6 0-0.9 0.7-1.6 1.6-1.6l90.9-0.7c0.9 0 1.6 0.7 1.6 1.6 0 0.9-0.7 1.6-1.6 1.6z"/>
			<path id="&lt;Path&gt;" class="s4" d="m275.1 457.5l-18.8 0.1c-0.9 0-1.7-0.7-1.7-1.6 0-0.9 0.7-1.6 1.6-1.6l18.9-0.2c0.9 0 1.6 0.8 1.6 1.6 0 0.9-0.7 1.7-1.6 1.7z"/>
			<path id="&lt;Path&gt;" class="s2" d="m306.2 457.2l-18.9 0.2c-0.9 0-1.6-0.7-1.6-1.6 0-0.9 0.7-1.6 1.6-1.7l18.9-0.1c0.9 0 1.6 0.7 1.6 1.6 0 0.9-0.7 1.6-1.6 1.6z"/>
			<path id="&lt;Path&gt;" class="s2" d="m214.4 439.6l-60.6 0.5c-0.9 0-1.6-0.7-1.6-1.6-0.1-0.9 0.7-1.6 1.6-1.6l60.6-0.5c0.9 0 1.6 0.7 1.6 1.6 0 0.9-0.7 1.6-1.6 1.6z"/>
			<path id="&lt;Path&gt;" class="s7" d="m252.1 439.4l-26.6 0.2c-0.9 0-1.6-0.8-1.6-1.6 0-0.9 0.7-1.7 1.6-1.7l26.6-0.2c0.9 0 1.6 0.7 1.6 1.6 0 0.9-0.7 1.7-1.6 1.7z"/>
			<path id="&lt;Path&gt;" class="s2" d="m252.4 477.3l-60.6 0.5c-0.9 0-1.6-0.7-1.6-1.6 0-0.9 0.7-1.7 1.6-1.7l60.6-0.4c0.9 0 1.6 0.7 1.6 1.6 0 0.9-0.7 1.6-1.6 1.6z"/>
			<path id="&lt;Path&gt;" class="s7" d="m180.7 477.9l-26.6 0.2c-0.9 0-1.7-0.8-1.7-1.7 0-0.8 0.8-1.6 1.7-1.6l26.5-0.2c0.9 0 1.7 0.7 1.7 1.6 0 0.9-0.7 1.6-1.6 1.7z"/>
			<path id="&lt;Path&gt;" class="s7" d="m245.3 522.6l-90.9 0.7c-0.9 0-1.6-0.7-1.6-1.6 0-0.9 0.7-1.6 1.6-1.7l90.9-0.6c0.9-0.1 1.6 0.7 1.6 1.6 0 0.9-0.7 1.6-1.6 1.6z"/>
			<path id="&lt;Path&gt;" class="s2" d="m275.6 522.4l-18.9 0.1c-0.8 0-1.6-0.7-1.6-1.6 0-0.9 0.7-1.6 1.6-1.6l18.9-0.2c0.9 0 1.6 0.7 1.6 1.6 0 0.9-0.7 1.7-1.6 1.7z"/>
			<path id="&lt;Path&gt;" class="s4" d="m245.9 598.1l-90.9 0.6c-0.9 0.1-1.6-0.7-1.6-1.6-0.1-0.9 0.7-1.6 1.6-1.6l90.9-0.7c0.9 0 1.6 0.7 1.6 1.6 0 0.9-0.7 1.6-1.6 1.7z"/>
			<path id="&lt;Path&gt;" class="s6" d="m276.2 597.8l-18.9 0.2c-0.9 0-1.6-0.7-1.6-1.6 0-0.9 0.7-1.7 1.6-1.7l18.9-0.1c0.9 0 1.6 0.7 1.6 1.6 0 0.9-0.7 1.6-1.6 1.6z"/>
			<path id="&lt;Path&gt;" class="s6" d="m245.6 558.6l-90.9 0.7c-0.9 0-1.6-0.7-1.6-1.6 0-0.9 0.7-1.6 1.6-1.6l90.9-0.7c0.9 0 1.6 0.7 1.6 1.6 0 0.9-0.7 1.6-1.6 1.6z"/>
			<path id="&lt;Path&gt;" class="s4" d="m275.9 558.4l-18.9 0.1c-0.9 0-1.6-0.7-1.6-1.6 0-0.9 0.7-1.6 1.6-1.6l18.9-0.2c0.9 0 1.6 0.8 1.6 1.7 0 0.8-0.7 1.6-1.6 1.6z"/>
			<path id="&lt;Path&gt;" class="s2" d="m306.9 558.1l-18.8 0.2c-0.9 0-1.6-0.7-1.7-1.6 0-0.9 0.8-1.6 1.7-1.6l18.8-0.2c0.9 0 1.6 0.7 1.7 1.6 0 0.9-0.8 1.6-1.7 1.6z"/>
			<path id="&lt;Path&gt;" class="s2" d="m215.1 540.5l-60.5 0.5c-0.9 0-1.7-0.7-1.7-1.6 0-0.9 0.7-1.6 1.6-1.6l60.6-0.5c0.9 0 1.6 0.7 1.7 1.6 0 0.9-0.8 1.6-1.7 1.6z"/>
			<path id="&lt;Path&gt;" class="s7" d="m252.9 540.3l-26.6 0.2c-0.9 0-1.6-0.8-1.6-1.6 0-0.9 0.7-1.7 1.6-1.7l26.6-0.2c0.8 0 1.6 0.7 1.6 1.6 0 0.9-0.7 1.7-1.6 1.7z"/>
			<path id="&lt;Path&gt;" class="s2" d="m253.2 578.2l-60.6 0.5c-0.9 0-1.7-0.7-1.7-1.6 0-0.9 0.7-1.7 1.6-1.7l60.6-0.4c0.9 0 1.7 0.7 1.7 1.6 0 0.9-0.7 1.6-1.6 1.6z"/>
			<path id="&lt;Path&gt;" class="s7" d="m181.4 578.8l-26.6 0.2c-0.9 0-1.6-0.8-1.6-1.7 0-0.8 0.7-1.6 1.6-1.6l26.6-0.2c0.9 0 1.6 0.7 1.6 1.6 0 0.9-0.7 1.6-1.6 1.7z"/>
			<path id="&lt;Path&gt;" class="s7" d="m246.1 621.4l-90.9 0.7c-0.9 0-1.7-0.7-1.7-1.6 0-0.9 0.7-1.7 1.6-1.7l90.9-0.6c0.9-0.1 1.7 0.7 1.7 1.6 0 0.9-0.7 1.6-1.6 1.6z"/>
			<path id="&lt;Path&gt;" class="s2" d="m276.4 621.2l-18.9 0.1c-0.9 0-1.6-0.7-1.6-1.6 0-0.9 0.7-1.6 1.6-1.6l18.8-0.2c0.9 0 1.7 0.7 1.7 1.6 0 0.9-0.7 1.7-1.6 1.7z"/>
			<path id="&lt;Path&gt;" class="s4" d="m276.7 668.8l-18.8 0.2c-0.9 0-1.7-0.8-1.7-1.7 0-0.9 0.7-1.6 1.6-1.6l18.9-0.1c0.9 0 1.6 0.7 1.6 1.6 0 0.9-0.7 1.6-1.6 1.6z"/>
			<path id="&lt;Path&gt;" class="s2" d="m307.8 668.6l-18.9 0.1c-0.9 0-1.6-0.7-1.6-1.6 0-0.9 0.7-1.6 1.6-1.6l18.9-0.2c0.9 0 1.6 0.7 1.6 1.6 0 0.9-0.7 1.7-1.6 1.7z"/>
			<path id="&lt;Path&gt;" class="s2" d="m215.9 639.3l-60.6 0.5c-0.9 0-1.6-0.7-1.6-1.6 0-0.9 0.7-1.6 1.6-1.6l60.6-0.5c0.9 0 1.6 0.7 1.6 1.6 0 0.9-0.7 1.6-1.6 1.6z"/>
			<path id="&lt;Path&gt;" class="s7" d="m253.6 639.1l-26.6 0.2c-0.9 0-1.6-0.8-1.6-1.6 0-0.9 0.7-1.7 1.6-1.7l26.6-0.2c0.9 0 1.6 0.7 1.6 1.6 0 0.9-0.7 1.6-1.6 1.7z"/>
		</g>
		<g id="&lt;Group&gt;">
			<g id="&lt;Group&gt;">
				<g id="&lt;Group&gt;">
					<g id="&lt;Group&gt;">
						<g id="&lt;Group&gt;">
							<g id="&lt;Group&gt;">
								<g id="&lt;Group&gt;">
									<g id="&lt;Group&gt;">
										<path id="&lt;Path&gt;" class="s8" d="m335.4 189.3l245.3-0.1c7 0 13.4 2.5 18.4 6.7 6.2 5.2 10.2 13.1 10.2 21.9l0.3 528.4c0 9.8-5 18.5-12.5 23.7-4.6 3.1-10.2 5-16.2 5l-224.8 0.1h-20.4c-3.6 0-7-0.7-10.1-1.8-10.9-4.1-18.6-14.6-18.6-26.8v-27.2-9.4l-0.1-111.8-0.1-218.7v-111.7-9.4-40.2c-0.1-15.9 12.8-28.7 28.6-28.7z"/>
									</g>
									<path id="&lt;Path&gt;" class="s2" d="m337.1 200.2l241.9-0.1c6.9 0 13.2 2.5 18.1 6.5 6.2 5.1 10.1 12.7 10.1 21.2l0.3 511.2c0 9.5-4.9 17.9-12.3 22.9-4.6 3.1-10 4.9-16 4.9l-221.7 0.1h-20.2c-3.4 0-6.8-0.7-9.9-1.8-10.7-3.9-18.3-14-18.3-25.9v-26.3-9.1l-0.1-108.1-0.1-211.6v-108.1-9.1-38.9c-0.1-15.3 12.6-27.8 28.2-27.8z"/>
								</g>
							</g>
							<g id="&lt;Group&gt;">
								<path id="&lt;Path&gt;" class="s4" d="m593.5 269.7l0.2 424.7c0 3.8-3 6.8-6.8 6.8l-257.2 0.1c-3.8 0-6.9-3-6.9-6.8l-0.2-424.7c0-3.8 3.1-6.9 6.9-6.9l257.2-0.1c3.8 0 6.8 3.1 6.8 6.9z"/>
								<g id="&lt;Group&gt;">
									<g id="&lt;Group&gt;">
										<path id="&lt;Path&gt;" class="s6" d="m593.5 269.5l0.1 27.6-271 0.1v-27.9c0-3.6 2.9-6.6 6.6-6.6l257.4-0.1c3.8 0 6.9 3.1 6.9 6.9z"/>
									</g>
									<g id="&lt;Group&gt;">
										<path id="&lt;Path&gt;" class="s4" d="m560.1 276c-0.6 0-1-0.5-1-1 0-0.6 0.4-1 1-1h20.3c0.6 0 1 0.4 1 1 0 0.5-0.4 1-1 1z"/>
										<path id="&lt;Path&gt;" class="s4" d="m560.1 281.2c-0.6 0-1-0.5-1-1 0-0.6 0.4-1 1-1h20.3c0.6 0 1 0.4 1 1 0 0.5-0.4 1-1 1z"/>
										<path id="&lt;Path&gt;" class="s4" d="m560.1 286.4c-0.6 0-1-0.5-1-1 0-0.6 0.4-1 1-1h20.3c0.6 0 1 0.4 1 1 0 0.5-0.4 1-1 1z"/>
									</g>
									<path id="&lt;Path&gt;" class="s4" d="m346.8 289.7q-0.4 0-0.7-0.3l-7.4-7.4c-0.6-0.6-0.6-1.7 0-2.3l7.1-7.1c0.4-0.4 1-0.4 1.4 0 0.4 0.4 0.4 1 0 1.4l-6.8 6.9 7.1 7.1c0.4 0.4 0.4 1 0 1.4q-0.3 0.3-0.7 0.3z"/>
								</g>
							</g>
							<path id="&lt;Compound Path&gt;" fill-rule="evenodd" class="s4" d="m458.3 237.4c-4 0-7.3-3.3-7.3-7.3 0-4.1 3.3-7.4 7.3-7.4q0 0 0 0c4 0 7.3 3.3 7.3 7.4 0 4-3.2 7.3-7.3 7.3q0 0 0 0zm0-11.5q0 0 0 0c-2.3 0-4.2 1.9-4.2 4.2 0 2.3 1.9 4.2 4.2 4.2q0 0 0 0c1.1 0 2.2-0.4 3-1.2 0.8-0.8 1.2-1.9 1.2-3 0-1.2-0.4-2.2-1.2-3-0.8-0.8-1.9-1.2-3-1.2z"/>
							<path id="&lt;Compound Path&gt;" fill-rule="evenodd" class="s4" d="m451.3 754c-2.6 0-4.7-2.1-4.7-4.7v-13.9c0-2.6 2.1-4.7 4.7-4.7h13.9c2.6 0 4.7 2.1 4.7 4.7v13.9c0 2.6-2.1 4.7-4.7 4.7zm13.9-21.3h-13.9c-1.5 0-2.7 1.2-2.7 2.7v13.9c0 1.5 1.2 2.7 2.7 2.7h13.9c1.5 0 2.7-1.2 2.7-2.7v-13.9c0-1.5-1.2-2.7-2.7-2.7z"/>
							<g id="&lt;Group&gt;">
								<path id="&lt;Path&gt;" class="s4" d="m367.6 735c-0.6 0-1-0.5-1-1 0-0.6 0.4-1 1-1h13.4c0.5 0 1 0.4 1 1 0 0.5-0.5 1-1 1z"/>
								<path id="&lt;Path&gt;" class="s4" d="m367.6 742.2c-0.6 0-1-0.4-1-1 0-0.5 0.4-1 1-1h13.4c0.5 0 1 0.5 1 1 0 0.6-0.5 1-1 1z"/>
								<path id="&lt;Path&gt;" class="s4" d="m367.6 749.5c-0.6 0-1-0.4-1-1 0-0.5 0.4-1 1-1h13.4c0.5 0 1 0.5 1 1 0 0.6-0.5 1-1 1z"/>
							</g>
							<path id="&lt;Path&gt;" class="s4" d="m552.4 754q-0.4 0-0.7-0.3l-10.6-10.5 10.3-10.3c0.4-0.4 1-0.4 1.4 0 0.4 0.4 0.4 1.1 0 1.5l-8.8 8.8 9.1 9.1c0.4 0.4 0.4 1 0 1.4q-0.3 0.3-0.7 0.3z"/>
						</g>
					</g>
				</g>
			</g>
			<g id="&lt;Group&gt;">
				<g id="&lt;Group&gt;" style="opacity: .4">
					<path id="&lt;Path&gt;" class="s6" d="m593.6 386.1l-270.5 0.1-0.1-88.6 270.6-0.1z"/>
				</g>
				<path id="&lt;Path&gt;" class="s9" d="m445.1 337.4h-97.1c-1.6 0-2.8-1.2-2.8-2.8v-16.3c0-1.6 1.2-2.8 2.8-2.8l97.1-0.1c1.6 0 2.8 1.3 2.8 2.9l0.1 16.3c0 1.5-1.3 2.8-2.9 2.8z"/>
				<path id="&lt;Path&gt;" class="s9" d="m498.5 360.6l-150.5 0.1c-1.5 0-2.8-1.2-2.8-2.8v-5.3c0-1.6 1.2-2.9 2.8-2.9h150.5c1.6 0 2.8 1.2 2.8 2.8v5.3c0 1.6-1.2 2.8-2.8 2.8z"/>
				<path id="&lt;Compound Path&gt;" fill-rule="evenodd" class="s9" d="m560.3 358.8c-5.6 0-10.8-2.1-14.7-6-4-4-6.1-9.2-6.1-14.7 0-5.6 2.1-10.8 6.1-14.7 3.9-3.9 9.1-6.1 14.6-6.1q0 0 0.1 0c5.5 0 10.7 2.1 14.6 6.1 4 3.9 6.1 9.1 6.1 14.7 0 5.5-2.1 10.7-6 14.6-4 4-9.2 6.1-14.7 6.1q0 0 0 0zm0-37.5q0 0-0.1 0c-4.4 0-8.6 1.7-11.8 4.9-3.2 3.2-4.9 7.4-4.9 11.9 0 4.5 1.7 8.7 4.9 11.8 3.2 3.2 7.4 4.9 11.9 4.9q0 0 0 0c4.4 0 8.7-1.7 11.8-4.9 3.2-3.1 4.9-7.4 4.9-11.8 0-4.5-1.7-8.7-4.9-11.9-3.2-3.2-7.4-4.9-11.8-4.9z"/>
			</g>
			<g id="&lt;Group&gt;">
				<g id="&lt;Group&gt;">
					<g id="&lt;Group&gt;">
						<g id="&lt;Group&gt;">
							<path id="&lt;Path&gt;" class="s8" d="m400.9 481.3h-44.8c-5 0-9.1-4.1-9.1-9.1v-44.8c0-5 4.1-9.1 9.1-9.1h44.7c5.1 0 9.2 4.1 9.2 9.1v44.7c0 5.1-4.1 9.2-9.1 9.2z"/>
							<g id="&lt;Group&gt;" style="opacity: .4">
								<path id="&lt;Path&gt;" class="s6" d="m392.1 450.1c0 7.5-6.1 13.6-13.6 13.6-7.5 0-13.6-6.1-13.6-13.6 0-7.5 6.1-13.6 13.6-13.6 7.5 0 13.6 6.1 13.6 13.6z"/>
							</g>
						</g>
						<g id="&lt;Group&gt;" style="opacity: .3">
							<path id="&lt;Path&gt;" class="s2" d="m458.6 439.4h-35.4c-1.3 0-2.3-1-2.3-2.3v-6.7c0-1.3 1-2.3 2.3-2.3h35.4c1.3 0 2.3 1 2.3 2.2v6.8c0 1.2-1 2.3-2.3 2.3z"/>
							<path id="&lt;Path&gt;" class="s2" d="m420.9 456.7c-1.1 0-2-0.9-2-2 0-1.1 0.9-2 2-2h68.2c1.1 0 2 0.9 2 2 0 1.1-0.9 2-2 2h-68.2z"/>
							<path id="&lt;Path&gt;" class="s2" d="m420.9 471c-1.1 0-2-0.9-2-2 0-1.1 0.9-2 2-2h111.3c1.1 0 2 0.9 2 2 0 1.1-0.9 2-2 2h-111.3z"/>
							<path id="&lt;Path&gt;" class="s2" d="m504.3 456.7c-1.1 0-2-0.9-2-2 0-1.1 0.9-2 2-2h68.3c1.1 0 2 0.9 2 2 0 1.1-0.9 2-2 2z"/>
						</g>
					</g>
					<g id="&lt;Group&gt;">
						<g id="&lt;Group&gt;">
							<g id="&lt;Group&gt;">
								<path id="&lt;Path&gt;" class="s6" d="m400.9 664.5h-44.7c-5 0-9.1-4.1-9.1-9.1v-44.8c0-5 4-9.1 9.1-9.1h44.7c5.1 0 9.1 4.1 9.1 9.1l0.1 44.8c0 5-4.1 9.1-9.2 9.1z"/>
							</g>
							<g id="&lt;Group&gt;" style="opacity: .6">
								<path id="&lt;Path&gt;" class="s2" d="m392.1 633.3c0.1 7.5-6 13.6-13.5 13.6-7.5 0-13.6-6.1-13.6-13.6 0-7.5 6-13.6 13.6-13.6 7.5 0 13.5 6.1 13.5 13.6z"/>
							</g>
						</g>
						<g id="&lt;Group&gt;" style="opacity: .3">
							<path id="&lt;Path&gt;" class="s2" d="m458.7 622.6h-35.4c-1.3 0-2.3-1-2.3-2.3v-6.7c0-1.3 1-2.3 2.3-2.3h35.4c1.3 0 2.3 1 2.3 2.3v6.7c0 1.3-1 2.3-2.3 2.3z"/>
							<path id="&lt;Path&gt;" class="s2" d="m421 640c-1.1 0-2-0.9-2-2 0-1.1 0.9-2 2-2l68.2-0.1c1.1 0 2 0.9 2 2 0 1.1-0.9 2-2 2l-68.2 0.1z"/>
							<path id="&lt;Path&gt;" class="s2" d="m421 654.2c-1.1 0-2-0.9-2-2 0-1.1 0.9-2 2-2h111.2c1.1 0 2 0.9 2 2 0 1.1-0.9 2-2 2h-111.2z"/>
							<path id="&lt;Path&gt;" class="s2" d="m504.4 639.9c-1.1 0-2-0.9-2-2 0-1.1 0.9-2 2-2h68.2c1.1 0 2 0.9 2 2 0 1.1-0.9 2-2 2z"/>
						</g>
					</g>
					<g id="&lt;Group&gt;">
						<g id="&lt;Group&gt;">
							<path id="&lt;Path&gt;" class="s7" d="m400.9 572.7h-44.7c-5.1 0-9.2-4.1-9.2-9.1v-44.8c0-5 4.1-9.1 9.1-9.1h44.8c5 0 9.1 4 9.1 9.1v44.7c0 5.1-4.1 9.1-9.1 9.2z"/>
							<path id="&lt;Path&gt;" class="s9" d="m392.1 541.5c0 7.5-6.1 13.6-13.6 13.6-7.5 0-13.6-6.1-13.6-13.6 0-7.5 6.1-13.6 13.6-13.6 7.5 0 13.6 6.1 13.6 13.6z"/>
						</g>
						<g id="&lt;Group&gt;" style="opacity: .3">
							<path id="&lt;Path&gt;" class="s2" d="m458.7 530.8h-35.5c-1.2 0-2.2-1-2.2-2.3v-6.7c0-1.3 1-2.3 2.2-2.3h35.5c1.2 0 2.2 1 2.2 2.2v6.8c0 1.2-1 2.3-2.2 2.3z"/>
							<path id="&lt;Path&gt;" class="s2" d="m421 548.1c-1.1 0-2-0.9-2-2 0-1.1 0.9-2 2-2h31.5c1.1 0 2 0.9 2 2 0 1.1-0.9 2-2 2h-31.5z"/>
							<path id="&lt;Path&gt;" class="s2" d="m421 562.4c-1.1 0-2-0.9-2-2 0-1.1 0.9-2 2-2h64.7c1.1 0 2 0.9 2 2 0 1.1-0.9 2-2 2h-64.7z"/>
							<path id="&lt;Path&gt;" class="s2" d="m465.7 548.1c-1.1 0-2-0.9-2-2 0-1.1 0.9-2 2-2h63c1.1 0 2 0.9 2 2 0 1.1-0.9 2-2 2h-63z"/>
							<path id="&lt;Path&gt;" class="s2" d="m540.4 548.1c-1.1 0-2-0.9-2-2 0-1.1 0.9-2 2-2h31.6c1.1 0 2 0.9 2 2 0 1.1-0.9 2-2 2z"/>
						</g>
					</g>
				</g>
			</g>
		</g>
		<g id="&lt;Group&gt;">
			<g id="&lt;Group&gt;">
				<g id="&lt;Group&gt;">
					<path id="&lt;Path&gt;" class="s9" d="m799 573.6l2.6 215.5c0.1 3.8-2.9 6.9-6.7 6.9l-128 1.6c-3.7 0-6.9-3-6.9-6.8l-2.6-215.5c-0.1-3.8 3-6.9 6.8-6.9l127.9-1.6c3.8 0 6.9 3 6.9 6.8z"/>
					<path id="&lt;Path&gt;" class="s10" d="m799 573.6l2.6 215.5c0.1 3.8-2.9 6.9-6.7 6.9l-128 1.6c-3.7 0-6.9-3-6.9-6.8l-2.6-215.5c-0.1-3.8 3-6.9 6.8-6.9l127.9-1.6c3.8 0 6.9 3 6.9 6.8z"/>
					<g id="&lt;Group&gt;">
						<path id="&lt;Path&gt;" class="s7" d="m799.5 573.5l0.1 11.1-141.6 1.8-0.1-11.5c-0.1-3.6 2.8-6.6 6.4-6.6l128.2-1.6c3.8 0 7 3 7 6.8z"/>
					</g>
				</g>
				<path id="&lt;Compound Path&gt;" fill-rule="evenodd" class="s4" d="m667.6 579.9c-1.6 0-2.9-1.3-3-2.9 0-1.6 1.3-3 2.9-3 1.7 0 3 1.3 3 2.9 0 1.6-1.3 3-2.9 3zm0-4.7c-1 0-1.8 0.8-1.8 1.8 0 0.9 0.8 1.7 1.8 1.7 0.9 0 1.7-0.8 1.7-1.8 0-0.9-0.8-1.7-1.7-1.7z"/>
				<path id="&lt;Compound Path&gt;" fill-rule="evenodd" class="s4" d="m677.3 579.8c-1.6 0-2.9-1.3-2.9-2.9 0-1.6 1.3-2.9 2.9-2.9 1.6 0 2.9 1.2 2.9 2.9 0 1.6-1.3 2.9-2.9 2.9zm0-4.7c-1 0-1.8 0.8-1.7 1.8 0 1 0.8 1.7 1.7 1.7 1 0 1.8-0.8 1.8-1.7-0.1-1-0.8-1.8-1.8-1.8z"/>
				<path id="&lt;Compound Path&gt;" fill-rule="evenodd" class="s4" d="m686.8 579.7c-1.6 0-2.9-1.3-2.9-2.9 0-1.6 1.2-2.9 2.9-2.9 1.6 0 2.9 1.3 2.9 2.9 0 1.6-1.3 2.9-2.9 2.9zm0-4.6c-1 0-1.8 0.8-1.8 1.7 0 1 0.8 1.8 1.8 1.8 1-0.1 1.7-0.8 1.7-1.8 0-1-0.8-1.8-1.7-1.7z"/>
				<path id="&lt;Path&gt;" class="s4" d="m735.6 606.6l-65.5 0.5c-0.6 0-1.1-0.5-1.1-1.2-0.1-0.6 0.5-1.1 1.1-1.1l65.5-0.5c0.6 0 1.1 0.5 1.1 1.1 0 0.7-0.5 1.2-1.1 1.2z"/>
				<path id="&lt;Path&gt;" class="s4" d="m757.4 606.4l-13.6 0.1c-0.6 0-1.2-0.5-1.2-1.1 0-0.7 0.6-1.2 1.2-1.2l13.6-0.1c0.6 0 1.2 0.5 1.2 1.2 0 0.6-0.5 1.1-1.2 1.1z"/>
				<path id="&lt;Path&gt;" class="s4" d="m736 660.9l-65.5 0.5c-0.6 0-1.1-0.5-1.1-1.1 0-0.7 0.5-1.2 1.1-1.2l65.5-0.5c0.6 0 1.2 0.5 1.2 1.2 0 0.6-0.6 1.1-1.2 1.1z"/>
				<path id="&lt;Path&gt;" class="s4" d="m757.8 660.8l-13.6 0.1c-0.6 0-1.1-0.5-1.1-1.2 0-0.6 0.5-1.2 1.1-1.2l13.6-0.1c0.6 0 1.2 0.6 1.2 1.2 0 0.6-0.5 1.2-1.2 1.2z"/>
				<path id="&lt;Path&gt;" class="s4" d="m735.8 632.5l-65.5 0.5c-0.6 0-1.1-0.5-1.2-1.1 0-0.7 0.6-1.2 1.2-1.2l65.5-0.5c0.6 0 1.1 0.5 1.1 1.2 0 0.6-0.5 1.1-1.1 1.1z"/>
				<path id="&lt;Path&gt;" class="s4" d="m757.6 632.4l-13.6 0.1c-0.6 0-1.2-0.5-1.2-1.2 0-0.6 0.6-1.2 1.2-1.2l13.6-0.1c0.6 0 1.2 0.5 1.2 1.2 0 0.6-0.6 1.2-1.2 1.2z"/>
				<path id="&lt;Path&gt;" class="s4" d="m780 632.2l-13.6 0.1c-0.7 0-1.2-0.5-1.2-1.2 0-0.6 0.5-1.1 1.2-1.1l13.6-0.1c0.6 0 1.1 0.5 1.1 1.1 0 0.7-0.5 1.2-1.1 1.2z"/>
				<path id="&lt;Path&gt;" class="s4" d="m713.9 619.5l-43.7 0.3c-0.6 0.1-1.1-0.5-1.2-1.1 0-0.7 0.6-1.2 1.2-1.2l43.6-0.3c0.7 0 1.2 0.5 1.2 1.1 0 0.7-0.5 1.2-1.1 1.2z"/>
				<path id="&lt;Path&gt;" class="s4" d="m741 619.3l-19.1 0.2c-0.7 0-1.2-0.6-1.2-1.2 0-0.6 0.5-1.2 1.2-1.2l19.1-0.1c0.7 0 1.2 0.5 1.2 1.1 0 0.7-0.5 1.2-1.2 1.2z"/>
				<path id="&lt;Path&gt;" class="s4" d="m741.2 646.6l-43.6 0.4c-0.6 0-1.2-0.5-1.2-1.2 0-0.6 0.5-1.2 1.2-1.2l43.6-0.3c0.7 0 1.2 0.5 1.2 1.2 0 0.6-0.5 1.1-1.2 1.1z"/>
				<path id="&lt;Path&gt;" class="s4" d="m689.6 647l-19.2 0.2c-0.6 0-1.1-0.5-1.1-1.2 0-0.6 0.5-1.1 1.1-1.2l19.2-0.1c0.6 0 1.1 0.5 1.1 1.2 0 0.6-0.5 1.1-1.1 1.1z"/>
				<path id="&lt;Path&gt;" class="s4" d="m736.1 679.3l-65.4 0.5c-0.7 0-1.2-0.6-1.2-1.2 0-0.7 0.5-1.2 1.2-1.2l65.4-0.5c0.7 0 1.2 0.5 1.2 1.2 0 0.6-0.5 1.2-1.2 1.2z"/>
				<path id="&lt;Path&gt;" class="s4" d="m758 679.1l-13.6 0.1c-0.7 0-1.2-0.5-1.2-1.2 0-0.6 0.5-1.1 1.2-1.1l13.5-0.1c0.7 0 1.2 0.5 1.2 1.1 0 0.7-0.5 1.2-1.1 1.2z"/>
				<path id="&lt;Path&gt;" class="s4" d="m736.5 733.6l-65.4 0.5c-0.7 0-1.2-0.5-1.2-1.2 0-0.6 0.5-1.1 1.2-1.1l65.4-0.5c0.7 0 1.2 0.5 1.2 1.1 0 0.7-0.5 1.2-1.2 1.2z"/>
				<path id="&lt;Path&gt;" class="s4" d="m758.4 733.4l-13.6 0.1c-0.7 0-1.2-0.5-1.2-1.1 0-0.7 0.5-1.2 1.2-1.2l13.5-0.1c0.7 0 1.2 0.5 1.2 1.2 0 0.6-0.5 1.1-1.1 1.1z"/>
				<path id="&lt;Path&gt;" class="s4" d="m736.3 705.2l-65.4 0.5c-0.7 0-1.2-0.5-1.2-1.2 0-0.6 0.5-1.1 1.2-1.1l65.4-0.5c0.7 0 1.2 0.5 1.2 1.1 0 0.7-0.5 1.2-1.2 1.2z"/>
				<path id="&lt;Path&gt;" class="s4" d="m758.2 705l-13.6 0.1c-0.7 0-1.2-0.5-1.2-1.1 0-0.7 0.5-1.2 1.1-1.2l13.6-0.1c0.7 0 1.2 0.5 1.2 1.2 0 0.6-0.5 1.1-1.1 1.1z"/>
				<path id="&lt;Path&gt;" class="s4" d="m780.5 704.9l-13.6 0.1c-0.6 0-1.1-0.6-1.1-1.2 0-0.6 0.5-1.2 1.1-1.2l13.6-0.1c0.6 0 1.2 0.5 1.2 1.2 0 0.6-0.5 1.2-1.2 1.2z"/>
				<path id="&lt;Path&gt;" class="s4" d="m714.4 692.2l-43.6 0.3c-0.7 0-1.2-0.5-1.2-1.1 0-0.7 0.5-1.2 1.2-1.2l43.6-0.4c0.6 0 1.2 0.6 1.2 1.2 0 0.7-0.5 1.2-1.2 1.2z"/>
				<path id="&lt;Path&gt;" class="s4" d="m741.6 692l-19.2 0.1c-0.6 0-1.1-0.5-1.1-1.1 0-0.7 0.5-1.2 1.1-1.2l19.2-0.2c0.6 0 1.1 0.6 1.1 1.2 0 0.6-0.5 1.2-1.1 1.2z"/>
				<path id="&lt;Path&gt;" class="s4" d="m741.8 719.3l-43.6 0.3c-0.7 0-1.2-0.5-1.2-1.1 0-0.7 0.5-1.2 1.1-1.2l43.7-0.3c0.6 0 1.1 0.5 1.1 1.1 0.1 0.7-0.5 1.2-1.1 1.2z"/>
				<path id="&lt;Path&gt;" class="s4" d="m690.1 719.7l-19.1 0.1c-0.7 0-1.2-0.5-1.2-1.1 0-0.7 0.5-1.2 1.2-1.2l19.1-0.1c0.7 0 1.2 0.5 1.2 1.1 0 0.7-0.5 1.2-1.2 1.2z"/>
				<path id="&lt;Path&gt;" class="s4" d="m736.7 750.4l-65.5 0.5c-0.6 0-1.2-0.5-1.2-1.2 0-0.6 0.6-1.1 1.2-1.1l65.5-0.5c0.6 0 1.1 0.5 1.1 1.1 0 0.7-0.5 1.2-1.1 1.2z"/>
				<path id="&lt;Path&gt;" class="s4" d="m758.5 750.2l-13.6 0.1c-0.6 0-1.2-0.5-1.2-1.1 0-0.7 0.5-1.2 1.2-1.2l13.6-0.1c0.6 0 1.1 0.5 1.2 1.2 0 0.6-0.6 1.1-1.2 1.1z"/>
				<path id="&lt;Path&gt;" class="s4" d="m758.8 784.6l-13.6 0.1c-0.7 0-1.2-0.6-1.2-1.2 0-0.6 0.5-1.2 1.2-1.2l13.5-0.1c0.7 0 1.2 0.5 1.2 1.2 0 0.6-0.5 1.1-1.1 1.2z"/>
				<path id="&lt;Path&gt;" class="s4" d="m781.1 784.4l-13.6 0.1c-0.6 0-1.1-0.5-1.1-1.2 0-0.6 0.5-1.1 1.1-1.1l13.6-0.2c0.6 0 1.2 0.6 1.2 1.2 0 0.7-0.5 1.2-1.2 1.2z"/>
				<path id="&lt;Path&gt;" class="s4" d="m715 763.3l-43.7 0.4c-0.6 0-1.2-0.6-1.2-1.2 0-0.6 0.6-1.2 1.2-1.2l43.6-0.3c0.7 0 1.2 0.5 1.2 1.2 0 0.6-0.5 1.1-1.1 1.1z"/>
				<path id="&lt;Path&gt;" class="s4" d="m742.1 763.1l-19.1 0.2c-0.7 0-1.2-0.5-1.2-1.2 0-0.6 0.5-1.2 1.2-1.2l19.1-0.1c0.6 0 1.2 0.5 1.2 1.2 0 0.6-0.5 1.1-1.2 1.1z"/>
			</g>
			<g id="&lt;Group&gt;">
				<g id="&lt;Group&gt;">
					<path id="&lt;Path&gt;" class="s11" d="m838.9 245l2.6 257.7c0.1 3.8-3 6.9-6.8 7l-154 1.5c-3.8 0.1-6.9-3-6.9-6.8l-2.7-257.6c0-3.8 3.1-6.9 6.8-7l154.1-1.6c3.8 0 6.9 3 6.9 6.8z"/>
					<path id="&lt;Path&gt;" class="s4" d="m829.7 233.1l2.7 257.7c0 3.8-3 6.9-6.8 6.9l-154.1 1.6c-3.7 0-6.9-3-6.9-6.8l-2.6-257.7c-0.1-3.8 3-6.9 6.8-6.9l154-1.6c3.8 0 6.9 3 6.9 6.8z"/>
					<g id="&lt;Group&gt;">
						<g id="&lt;Group&gt;">
							<path id="&lt;Path&gt;" class="s6" d="m830.3 233l0.1 14.4-167.7 1.7-0.2-14.7c0-3.6 2.9-6.6 6.5-6.7l154.3-1.5c3.8-0.1 6.9 3 7 6.8z"/>
						</g>
						<g id="&lt;Group&gt;">
							<path id="&lt;Path&gt;" class="s4" d="m809.6 235c-0.6 0-1-0.5-1-1 0-0.6 0.4-1 1-1l12.6-0.2c0.4 0 1 0.5 1 1 0 0.6-0.5 1-1 1l-12.6 0.2q0 0 0 0z"/>
							<path id="&lt;Path&gt;" class="s4" d="m809.6 238.2c-0.5 0-1-0.5-1-1 0-0.6 0.5-1 1-1l12.6-0.2c0.4 0.1 1 0.5 1 1 0 0.6-0.4 1-1 1l-12.6 0.2q0 0 0 0z"/>
							<path id="&lt;Path&gt;" class="s4" d="m809.7 241.4c-0.6 0-1-0.4-1-1-0.1-0.5 0.4-1 0.9-1l12.6-0.1q0 0 0 0c0.6 0 1 0.4 1 1 0 0.5-0.4 1-1 1l-12.5 0.1q0 0 0 0z"/>
						</g>
						<path id="&lt;Path&gt;" class="s4" d="m677.6 244.7q-0.4 0-0.7-0.3l-4.6-4.5c-0.5-0.5-0.5-1.4 0-1.9l4.3-4.5c0.4-0.4 1.1-0.4 1.5 0 0.3 0.4 0.4 1 0 1.4l-4 4 4.2 4.1c0.4 0.4 0.4 1 0 1.4q-0.3 0.3-0.7 0.3z"/>
					</g>
					<g id="&lt;Group&gt;" style="opacity: .4">
						<path id="&lt;Path&gt;" class="s6" d="m825.2 498.2l-154.5 0.9c-3.8 0-6.8-3-6.8-6.8l-0.3-53.5 168-1 0.3 53.6c0 3.7-3 6.8-6.7 6.8z"/>
					</g>
					<g id="&lt;Group&gt;">
						<path id="&lt;Path&gt;" class="s8" d="m780.5 285.7l-67.5 0.4c-1.3 0-2.3-1-2.3-2.3v-7.3c0-1.3 1-2.3 2.2-2.3l67.5-0.4c1.3 0 2.3 1 2.3 2.3v7.3c0 1.3-1 2.3-2.2 2.3z"/>
					</g>
					<g id="&lt;Group&gt;">
						<g id="&lt;Group&gt;" style="opacity: .3">
							<path id="&lt;Path&gt;" class="s6" d="m802 334l-110 0.6c-5.2 0.1-9.5-4.2-9.5-9.4v-2.3c-0.1-5.2 4.2-9.5 9.4-9.5l110-0.6c5.2-0.1 9.5 4.1 9.5 9.4v2.3c0.1 5.2-4.2 9.5-9.4 9.5z"/>
						</g>
						<g id="&lt;Group&gt;">
							<path id="&lt;Path&gt;" class="s9" d="m700.1 324c0.1 3.6-2.9 6.6-6.5 6.6-3.6 0-6.5-2.9-6.5-6.5-0.1-3.6 2.8-6.5 6.5-6.6 3.6 0 6.5 2.9 6.5 6.5z"/>
							<g id="&lt;Group&gt;">
								<path id="&lt;Path&gt;" class="s4" d="m695.9 322.2c0 1.3-1 2.4-2.3 2.4-1.3 0-2.4-1.1-2.4-2.4 0-1.3 1.1-2.3 2.4-2.4 1.3 0 2.3 1.1 2.3 2.4z"/>
								<path id="&lt;Path&gt;" class="s4" d="m697.1 328.3h-7v-0.8c0-2.1 1.6-3.7 3.7-3.7 1.8 0 3.3 1.4 3.3 3.3z"/>
							</g>
						</g>
					</g>
					<g id="&lt;Group&gt;">
						<g id="&lt;Group&gt;" style="opacity: .3">
							<path id="&lt;Path&gt;" class="s6" d="m802.2 368.6l-110 0.6c-5.2 0.1-9.5-4.1-9.5-9.4v-2.3c-0.1-5.2 4.1-9.5 9.4-9.5l110-0.6c5.2-0.1 9.5 4.2 9.5 9.4v2.3c0 5.2-4.2 9.5-9.4 9.5z"/>
						</g>
						<g id="&lt;Group&gt;">
							<path id="&lt;Path&gt;" class="s9" d="m700.3 358.7c0 3.6-2.9 6.5-6.5 6.5-3.6 0.1-6.5-2.9-6.6-6.5 0-3.6 2.9-6.5 6.6-6.5 3.6-0.1 6.5 2.8 6.5 6.5z"/>
							<g id="&lt;Group&gt;">
								<path id="&lt;Path&gt;" class="s4" d="m696 362.8h-4.4c-0.3 0-0.6-0.3-0.6-0.6l-0.1-3.9c0-0.4 0.3-0.7 0.7-0.7h4.4c0.3 0 0.6 0.3 0.6 0.6l0.1 3.9c0 0.4-0.3 0.7-0.7 0.7z"/>
								<path id="&lt;Path&gt;" class="s4" d="m691.5 358.1v-1.6c0-0.5 0.1-0.9 0.4-1.2 0.3-0.3 0.8-0.4 1.2-0.4h1.5q0 0 0 0c0.4 0 0.7 0.1 1 0.4 0.3 0.2 0.4 0.6 0.4 1v1.8h-0.5v-1.8q0-0.4-0.3-0.7-0.2-0.2-0.6-0.2 0 0 0 0h-1.5q-0.5 0-0.8 0.3-0.3 0.3-0.3 0.8v1.6z"/>
							</g>
						</g>
					</g>
					<path id="&lt;Path&gt;" class="s7" d="m773.3 407.3l-47.5 0.3c-5.7 0-10.4-4.6-10.5-10.4 0-5.7 4.6-10.4 10.4-10.4l47.4-0.3c5.8 0 10.5 4.6 10.5 10.3 0 5.8-4.6 10.5-10.3 10.5z"/>
				</g>
				<path id="&lt;Path&gt;" class="s4" d="m701.8 460.9c-1.1 0-2-0.9-2-2 0-1.1 0.9-2 2-2l91.8-0.5q0 0 0 0c1.1 0 2 0.8 2 1.9 0 1.2-0.9 2.1-2 2.1l-91.8 0.5q0 0 0 0z"/>
				<path id="&lt;Path&gt;" class="s4" d="m720.5 474.7c-1.1 0-2-0.9-2-2 0-1.1 0.9-2 2-2l54.6-0.3q0 0 0 0c1.1 0 2 0.9 2 2 0 1.1-0.9 2-2 2l-54.6 0.3q0 0 0 0z"/>
			</g>
			<g id="&lt;Group&gt;">
				<g id="&lt;Group&gt;">
					<path id="&lt;Path&gt;" class="s11" d="m721.6 420l2.6 257.7c0.1 3.8-3 6.9-6.8 6.9l-154 1.6c-3.8 0-6.9-3-6.9-6.8l-2.6-257.7c-0.1-3.8 3-6.9 6.8-6.9l154-1.6c3.8-0.1 6.9 3 6.9 6.8z"/>
					<path id="&lt;Path&gt;" class="s4" d="m712.4 408l2.7 257.7c0 3.8-3 6.9-6.8 7l-154 1.5c-3.8 0.1-6.9-3-7-6.8l-2.6-257.6c-0.1-3.8 3-6.9 6.8-7l154-1.6c3.8 0 6.9 3.1 6.9 6.8z"/>
					<g id="&lt;Group&gt;" style="opacity: .4">
						<path id="&lt;Path&gt;" class="s6" d="m712.4 408l2.7 257.7c0 3.8-3 6.9-6.8 7l-154 1.5c-3.8 0.1-6.9-3-7-6.8l-2.6-257.6c-0.1-3.8 3-6.9 6.8-7l154-1.6c3.8 0 6.9 3.1 6.9 6.8z"/>
					</g>
					<g id="&lt;Group&gt;">
						<g id="&lt;Group&gt;">
							<path id="&lt;Path&gt;" class="s6" d="m713 407.9l0.1 14.5-167.7 1.7-0.2-14.8c0-3.6 2.9-6.6 6.5-6.6l154.3-1.6c3.8 0 7 3 7 6.8z"/>
						</g>
						<g id="&lt;Group&gt;">
							<path id="&lt;Path&gt;" class="s4" d="m692.3 409.9c-0.6 0-1-0.4-1-1 0-0.5 0.4-1 1-1l12.6-0.1c0.4 0 1 0.4 1 1 0 0.5-0.5 1-1 1l-12.6 0.1q0 0 0 0z"/>
							<path id="&lt;Path&gt;" class="s4" d="m692.3 413.1c-0.5 0-1-0.4-1-1 0-0.5 0.5-1 1-1l12.6-0.1q0 0 0 0c0.6 0 1 0.4 1 1 0 0.5-0.4 1-1 1l-12.6 0.1q0 0 0 0z"/>
							<path id="&lt;Path&gt;" class="s4" d="m692.4 416.3c-0.6 0-1-0.4-1-1 0-0.5 0.4-1 0.9-1l12.6-0.1q0 0 0 0c0.6 0 1 0.4 1 1 0 0.5-0.4 1-1 1l-12.5 0.1q0 0 0 0z"/>
						</g>
						<path id="&lt;Path&gt;" class="s4" d="m560.3 419.7q-0.4 0-0.7-0.3l-4.6-4.5c-0.5-0.6-0.5-1.5 0-2l4.3-4.4c0.4-0.4 1.1-0.4 1.5-0.1 0.4 0.4 0.4 1.1 0 1.5l-4 4 4.2 4.1c0.4 0.3 0.4 1 0 1.4q-0.3 0.3-0.7 0.3z"/>
					</g>
					<g id="&lt;Group&gt;" style="opacity: .4">
						<path id="&lt;Path&gt;" class="s4" d="m707.9 673.1l-154.5 0.9c-3.8 0-6.8-3-6.8-6.7l-0.3-53.6 168-0.9 0.3 53.5c0 3.8-3 6.8-6.7 6.8z"/>
						<path id="&lt;Compound Path&gt;" fill-rule="evenodd" class="s4" d="m553.3 675c-2 0-4-0.8-5.4-2.2-1.5-1.5-2.3-3.4-2.3-5.5l-0.3-54.6 170-0.9 0.3 54.5c0 4.3-3.4 7.8-7.7 7.8l-154.5 0.9q0 0-0.1 0zm-6-60.3l0.3 52.6c0 1.5 0.6 3 1.7 4 1.1 1.1 2.5 1.7 4 1.7q0 0 0.1 0l154.5-0.9c3.2 0 5.7-2.6 5.7-5.8l-0.3-52.5z"/>
					</g>
					<g id="&lt;Group&gt;">
						<path id="&lt;Path&gt;" class="s4" d="m695.2 463.8l-121.1-0.1c-2.2 0-3.9-1.8-3.9-3.9v-12.1c0-2.2 1.7-3.9 3.9-3.9l121.1 0.2c2.2 0 3.9 1.7 3.9 3.9v12c0 2.2-1.8 3.9-3.9 3.9z"/>
						<path id="&lt;Path&gt;" class="s4" d="m695.8 479.2l-122.4-0.1c-1.8 0-3.3-1.5-3.3-3.3 0-1.8 1.5-3.3 3.3-3.3l122.4 0.2c1.8 0 3.3 1.4 3.3 3.3 0 1.8-1.5 3.2-3.3 3.2z"/>
						<path id="&lt;Path&gt;" class="s4" d="m695.8 494.4l-122.4-0.1c-1.8 0-3.3-1.5-3.3-3.3 0-1.8 1.5-3.3 3.3-3.3l122.4 0.2c1.8 0 3.3 1.4 3.3 3.3 0 1.8-1.5 3.2-3.3 3.2z"/>
						<path id="&lt;Path&gt;" class="s7" d="m586.7 516.7c0 4.6-3.7 8.3-8.3 8.3-4.6 0-8.3-3.7-8.3-8.3 0-4.6 3.7-8.3 8.3-8.3 4.6 0 8.3 3.7 8.3 8.3z"/>
						<path id="&lt;Path&gt;" class="s7" d="m586.6 554.3c0 4.6-3.7 8.3-8.3 8.3-4.6 0-8.3-3.7-8.3-8.3 0-4.6 3.8-8.3 8.3-8.3 4.6 0 8.3 3.7 8.3 8.3z"/>
						<path id="&lt;Path&gt;" class="s7" d="m586.6 590.8c0 4.6-3.7 8.3-8.3 8.3-4.6 0-8.3-3.7-8.3-8.3 0-4.6 3.7-8.3 8.3-8.3 4.6 0 8.3 3.7 8.3 8.3z"/>
						<path id="&lt;Path&gt;" class="s4" d="m670.7 513.8q0 0 0 0l-79.3-0.1c-0.6 0-1-0.5-1-1 0-0.6 0.4-1 1-1q0 0 0 0l79.3 0.1c0.6 0 1 0.4 1 1 0 0.5-0.4 1-1 1z"/>
						<path id="&lt;Path&gt;" class="s4" d="m631.1 522.2q0 0-0.1 0l-39.6-0.1c-0.6 0-1-0.4-1-1 0-0.5 0.4-1 1-1q0 0 0 0l39.7 0.1c0.5 0 1 0.4 1 1 0 0.5-0.5 1-1 1z"/>
						<path id="&lt;Path&gt;" class="s4" d="m670.7 552.6q0 0 0 0l-79.4-0.1c-0.5 0-1-0.4-1-1 0-0.5 0.5-1 1-1q0 0 0 0l79.4 0.1c0.5 0 1 0.5 1 1 0 0.6-0.5 1-1 1z"/>
						<path id="&lt;Path&gt;" class="s4" d="m631 561q0 0 0 0h-39.7c-0.5 0-1-0.5-1-1 0-0.6 0.5-1 1-1q0 0 0 0h39.7c0.6 0 1 0.5 1 1 0 0.6-0.4 1-1 1z"/>
						<path id="&lt;Path&gt;" class="s4" d="m670.6 588.1q0 0 0 0l-79.3-0.1c-0.6 0-1-0.5-1-1 0-0.6 0.4-1 1-1q0 0 0 0l79.4 0.1c0.5 0 0.9 0.4 0.9 1 0 0.5-0.4 1-1 1z"/>
						<path id="&lt;Path&gt;" class="s4" d="m631 596.5q0 0 0 0l-39.7-0.1c-0.6 0-1-0.4-1-1 0-0.5 0.4-1 1-1q0 0 0 0l39.7 0.1c0.5 0 1 0.4 1 1 0 0.5-0.5 1-1 1z"/>
					</g>
				</g>
				<path id="&lt;Path&gt;" class="s4" d="m584.5 635.8c-1.1 0-2-0.9-2-2 0-1.1 0.9-2 2-2l91.8-0.5q0 0 0 0c1.1 0 2 0.9 2 2 0 1.1-0.9 2-2 2l-91.8 0.5q0 0 0 0z"/>
				<path id="&lt;Path&gt;" class="s4" d="m603.2 649.6c-1.1 0-2-0.9-2-2 0-1.1 0.9-2 2-2l54.6-0.3q0 0 0 0c1.1 0 2 0.9 2 2 0 1.1-0.9 2-2 2l-54.6 0.3q0 0 0 0z"/>
			</g>
		</g>
		<g id="&lt;Group&gt;">
			<g id="&lt;Group&gt;">
				<g id="&lt;Group&gt;">
					<path id="&lt;Path&gt;" class="s6" d="m358.1 365.1h-143.3c-1.8 0-3.3-1.5-3.3-3.3v-41.6c0-1.8 1.5-3.3 3.3-3.3h143.3c1.8 0 3.3 1.5 3.3 3.3v41.6c0 1.8-1.5 3.3-3.3 3.3z"/>
					<g id="&lt;Group&gt;">
						<path id="&lt;Compound Path&gt;" class="s7" d="m236.7 355.6c-8.5 0-15.5-7-15.5-15.5 0-8.6 7-15.5 15.5-15.5 8.6 0 15.5 6.9 15.5 15.5 0 8.5-6.9 15.5-15.5 15.5z"/>
						<path id="&lt;Path&gt;" class="s4" d="m235.4 345.9l-5.8-8c-0.5-0.7-0.4-1.7 0.3-2.1 0.3-0.3 0.7-0.4 1.1-0.3 0.5 0 0.8 0.3 1 0.6l3.7 5.1 18.5-18.4c0.2-0.3 0.6-0.5 1-0.5q0 0 0 0c0.4 0 0.8 0.2 1.1 0.5 0.6 0.6 0.6 1.5 0 2.1z"/>
					</g>
					<g id="&lt;Group&gt;">
						<path id="&lt;Path&gt;" class="s4" d="m265.3 333.1h76.7"/>
						<path id="&lt;Path&gt;" class="s9" d="m342 334.1h-76.7c-0.5 0-1-0.5-1-1 0-0.6 0.5-1 1-1h76.7c0.5 0 1 0.4 1 1 0 0.5-0.5 1-1 1z"/>
					</g>
					<g id="&lt;Group&gt;">
						<path id="&lt;Path&gt;" class="s4" d="m265.3 342.1h34.3"/>
						<path id="&lt;Path&gt;" class="s9" d="m299.6 343.1h-34.3c-0.5 0-1-0.4-1-1 0-0.5 0.5-1 1-1h34.3c0.5 0 1 0.5 1 1 0 0.6-0.5 1-1 1z"/>
					</g>
					<g id="&lt;Group&gt;">
						<path id="&lt;Path&gt;" class="s4" d="m307.7 342.1h34.3"/>
						<path id="&lt;Path&gt;" class="s9" d="m342 343.1h-34.3c-0.5 0-1-0.4-1-1 0-0.5 0.5-1 1-1h34.3c0.5 0 1 0.5 1 1 0 0.6-0.5 1-1 1z"/>
					</g>
					<g id="&lt;Group&gt;">
						<path id="&lt;Path&gt;" class="s4" d="m265.3 351.7h76.7"/>
						<path id="&lt;Path&gt;" class="s9" d="m342 352.7h-76.7c-0.5 0-1-0.5-1-1 0-0.6 0.5-1 1-1h76.7c0.5 0 1 0.4 1 1 0 0.5-0.5 1-1 1z"/>
					</g>
				</g>
				<g id="&lt;Group&gt;">
					<g id="&lt;Group&gt;">
						<path id="&lt;Path&gt;" class="s6" d="m906.5 586.2h-143.4c-1.7 0-3.2-1.5-3.2-3.3v-41.6c0-1.8 1.5-3.3 3.2-3.3h143.4c1.8 0 3.2 1.5 3.2 3.3v41.6c0 1.8-1.4 3.3-3.2 3.3z"/>
						<g id="&lt;Group&gt;">
							<path id="&lt;Compound Path&gt;" class="s7" d="m785.1 576.7c-8.5 0-15.5-7-15.5-15.5 0-8.5 7-15.5 15.5-15.5 8.5 0 15.5 7 15.5 15.5 0 8.5-7 15.5-15.5 15.5z"/>
							<path id="&lt;Compound Path&gt;" fill-rule="evenodd" class="s4" d="m783.7 567l-5.8-8c-0.2-0.3-0.3-0.7-0.2-1.1 0-0.4 0.3-0.8 0.6-1 0.3-0.3 0.7-0.4 1.1-0.3 0.4 0.1 0.8 0.3 1 0.6l3.7 5.1 18.4-18.4c0.6-0.6 1.6-0.6 2.2 0 0.6 0.6 0.6 1.6 0 2.1zm-4.9-8.6q0 0 0 0z"/>
						</g>
						<g id="&lt;Group&gt;">
							<path id="&lt;Path&gt;" class="s4" d="m813.7 554.2h76.7"/>
							<path id="&lt;Path&gt;" class="s9" d="m890.4 555.2h-76.7c-0.5 0-1-0.5-1-1 0-0.6 0.5-1 1-1h76.7c0.5 0 1 0.4 1 1 0 0.5-0.5 1-1 1z"/>
						</g>
						<g id="&lt;Group&gt;">
							<path id="&lt;Path&gt;" class="s4" d="m813.7 563.3h34.3"/>
							<path id="&lt;Path&gt;" class="s9" d="m848 564.3h-34.3c-0.5 0-1-0.5-1-1 0-0.6 0.5-1 1-1h34.3c0.5 0 1 0.4 1 1 0 0.5-0.5 1-1 1z"/>
						</g>
						<g id="&lt;Group&gt;">
							<path id="&lt;Path&gt;" class="s4" d="m856.1 563.3h34.3"/>
							<path id="&lt;Path&gt;" class="s9" d="m890.4 564.3h-34.3c-0.5 0-1-0.5-1-1 0-0.6 0.5-1 1-1h34.3c0.5 0 1 0.4 1 1 0 0.5-0.5 1-1 1z"/>
						</g>
						<g id="&lt;Group&gt;">
							<path id="&lt;Path&gt;" class="s4" d="m813.7 572.8h76.7"/>
							<path id="&lt;Path&gt;" class="s9" d="m890.4 573.8h-76.7c-0.5 0-1-0.5-1-1 0-0.6 0.5-1 1-1h76.7c0.5 0 1 0.4 1 1 0 0.5-0.5 1-1 1z"/>
						</g>
					</g>
				</g>
			</g>
		</g>
	</g>
	<g id="DESIGNED BY FREEPIK">
		<g id="&lt;Group&gt;">
			<g id="&lt;Group&gt;">
			</g>
		</g>
	</g>
</svg>